<?xml version="1.0" standalone="no"?>
<!DOCTYPE svg PUBLIC "-//W3C//DTD SVG 20010904//EN"
 "http://www.w3.org/TR/2001/REC-SVG-20010904/DTD/svg10.dtd">
<svg version="1.0" xmlns="http://www.w3.org/2000/svg"
 width="920.000000pt" height="800.000000pt" viewBox="0 0 920.000000 800.000000"
 preserveAspectRatio="xMidYMid meet">

<g transform="translate(0.000000,800.000000) scale(0.100000,-0.100000)"
fill="#000000" stroke="none">
<path d="M4900 7990 c-120 -20 -218 -53 -361 -121 l-148 -72 -193 22 c-291 32
-391 27 -478 -27 -52 -32 -78 -72 -99 -155 l-16 -59 -161 -84 c-271 -141 -331
-145 -427 -25 -86 106 -196 177 -311 201 -101 21 -213 -10 -277 -76 l-33 -34
33 0 c76 0 126 -50 119 -120 -3 -31 -6 -33 -73 -50 -153 -39 -272 -123 -315
-222 -32 -73 -37 -175 -15 -292 l18 -94 -23 -36 c-12 -20 -89 -110 -171 -199
-228 -247 -339 -402 -400 -560 -49 -129 -62 -204 -56 -347 3 -108 8 -138 36
-218 l32 -93 -20 -81 c-41 -160 -21 -343 54 -505 19 -42 34 -78 32 -80 -13
-13 -139 -24 -227 -21 -79 3 -117 10 -154 26 -56 25 -56 25 -56 12 0 -18 63
-81 106 -106 58 -34 114 -51 263 -79 68 -13 128 -28 133 -33 7 -7 -4 -25 -32
-55 -42 -46 -107 -77 -159 -77 -42 1 -105 35 -140 76 l-32 39 6 -30 c4 -16 20
-57 36 -91 69 -146 309 -301 497 -321 l52 -6 0 -46 c0 -25 -3 -76 -6 -113 -6
-57 -10 -68 -31 -77 -58 -27 -131 3 -161 65 -16 35 -17 35 -23 13 -20 -69 5
-170 53 -225 35 -40 96 -74 131 -74 24 0 24 -1 31 -139 15 -313 84 -579 175
-683 30 -35 195 -138 219 -138 14 0 47 -48 55 -79 9 -36 -17 -87 -54 -107 -73
-37 -147 -14 -176 54 -17 41 -22 124 -10 162 l8 25 -25 -28 c-37 -40 -49 -98
-43 -202 11 -209 115 -339 287 -361 111 -14 158 -73 125 -160 -17 -44 -59 -84
-89 -84 -24 0 -20 -21 14 -72 33 -49 71 -71 116 -66 28 3 29 6 54 115 14 61
28 114 31 117 3 4 12 -13 18 -36 19 -63 104 -228 160 -312 274 -406 771 -803
1476 -1179 201 -108 481 -241 663 -316 l121 -49 42 55 c24 30 70 79 103 109
72 65 85 67 267 27 110 -24 146 -27 324 -27 167 -1 221 3 330 23 72 12 131 24
133 26 2 1 -15 31 -38 66 -22 34 -44 79 -50 98 -14 55 -58 628 -53 696 9 134
45 478 64 604 17 121 22 137 47 161 15 14 63 69 105 123 115 143 154 170 284
198 216 47 474 208 507 317 7 20 1 19 -56 -19 -86 -55 -226 -121 -326 -153
-181 -57 -113 16 181 195 76 46 151 97 168 113 32 32 37 66 13 91 -14 13 -106
65 -117 65 -1 0 -1 -16 1 -35 12 -102 -145 -36 -195 82 -24 58 -17 126 18 177
17 26 33 46 37 46 3 0 44 -38 91 -84 132 -128 205 -155 243 -90 43 74 43 309
-1 437 l-20 57 78 0 c146 0 251 32 251 77 0 31 -67 102 -196 209 -56 46 -116
100 -133 119 -30 35 -31 39 -31 129 l0 94 54 6 c92 12 155 33 192 65 19 17 43
31 53 31 29 0 63 -33 64 -63 2 -28 6 -31 32 -21 32 13 49 65 47 152 l-1 82 57
0 c119 0 205 -69 245 -195 l22 -70 3 55 c2 30 -2 80 -8 110 -15 71 -81 205
-126 259 -39 45 -33 50 39 25 55 -18 117 -82 117 -119 0 -28 15 -34 24 -9 29
75 -34 223 -138 322 -74 71 -151 111 -231 119 -53 6 -55 7 -55 35 0 63 128
160 255 193 87 22 136 20 179 -10 l37 -25 -6 22 c-40 132 -159 155 -430 83
-77 -20 -147 -38 -155 -38 -11 -2 -17 15 -23 63 -12 92 -3 126 36 147 28 16
58 18 252 15 219 -3 305 2 305 17 0 5 -17 11 -37 14 -59 10 -190 78 -283 147
-84 63 -354 326 -439 429 l-45 53 35 -8 c18 -5 77 -9 129 -9 107 1 158 19 211
78 35 38 37 57 7 57 -39 1 -158 47 -213 84 -82 54 -166 137 -302 300 -70 83
-142 167 -160 186 -37 40 -37 40 -19 100 56 188 1 443 -114 519 -23 15 -24 15
-16 -4 4 -11 10 -46 13 -77 12 -126 -66 -218 -136 -160 -21 16 -21 19 -7 59
49 138 43 309 -15 431 -61 128 -208 242 -388 301 -35 12 -66 21 -68 21 -2 0
20 -19 49 -43 106 -86 152 -175 125 -239 -30 -68 -103 -113 -233 -144 -118
-27 -207 -2 -279 79 -29 31 -72 104 -117 193 -75 153 -117 210 -182 252 -78
49 -178 93 -254 112 -90 23 -253 33 -332 20z m85 -1550 c99 -24 124 -34 142
-56 33 -42 72 -128 114 -252 45 -133 66 -170 125 -218 82 -68 124 -193 139
-409 4 -55 26 -203 50 -330 24 -126 47 -266 50 -310 l7 -80 -78 115 c-72 105
-228 279 -240 267 -3 -2 29 -57 71 -121 148 -229 215 -380 216 -494 l1 -59 49
-12 c57 -15 103 -56 173 -154 48 -68 73 -86 61 -44 -10 33 -149 318 -189 387
-20 34 -36 64 -36 67 0 3 57 3 128 0 127 -5 185 -19 211 -51 16 -19 11 -202
-9 -353 l-13 -101 56 -74 c66 -86 147 -251 147 -299 0 -19 10 -77 21 -129 58
-268 60 -293 49 -472 -6 -91 -17 -192 -25 -223 -8 -31 -15 -75 -15 -99 0 -68
-37 -260 -74 -386 -93 -318 -110 -370 -137 -426 -58 -118 -125 -178 -557 -503
-272 -204 -428 -310 -517 -352 -127 -60 -517 -154 -685 -165 -99 -7 -350 17
-485 46 -49 11 -121 35 -160 54 -150 74 -454 291 -517 368 -92 113 -223 332
-312 520 -45 95 -59 141 -90 288 -92 432 -108 503 -147 630 -48 161 -135 477
-179 649 l-31 124 3 506 c4 843 18 1234 49 1380 8 34 25 60 72 110 75 80 215
253 265 328 29 45 39 53 56 48 128 -40 225 -45 340 -15 158 40 271 124 360
266 2 3 190 -26 396 -61 254 -44 445 -56 501 -32 49 20 76 5 114 -65 19 -33
43 -146 46 -213 3 -67 8 -72 30 -35 38 62 69 175 69 249 l0 71 38 -19 c20 -10
82 -33 138 -50 112 -34 158 -61 190 -109 27 -40 34 -27 34 62 0 79 -40 165
-105 225 -25 23 -41 41 -37 41 4 0 61 -13 127 -30z m-2045 -30 c74 -74 200
-89 304 -35 27 14 51 24 53 22 2 -2 -6 -15 -16 -29 -45 -56 -251 -138 -349
-138 -33 0 -49 6 -69 26 -23 23 -25 31 -21 85 3 44 10 65 28 84 13 14 25 25
27 25 2 0 21 -18 43 -40z m4087 -2091 c45 -113 67 -284 67 -519 1 -192 -2
-224 -22 -300 -26 -99 -57 -162 -121 -245 -104 -136 -194 -213 -303 -256 -65
-26 -211 -59 -294 -66 l-62 -5 5 93 c4 81 10 106 44 183 21 49 37 92 34 94 -2
3 -23 -7 -45 -22 -35 -23 -40 -24 -40 -9 -1 44 -30 425 -36 465 -5 34 -4 37
25 43 41 9 78 40 101 86 27 53 25 64 -15 88 -45 26 -70 77 -61 125 13 66 86
125 102 81 7 -18 75 -20 107 -4 18 10 25 7 49 -20 15 -17 28 -43 28 -57 0 -36
-36 -102 -86 -156 -24 -26 -44 -54 -44 -62 0 -8 20 -53 44 -99 63 -120 64
-140 3 -167 -66 -29 -112 -87 -120 -153 -10 -77 34 -94 166 -62 49 11 89 14
147 9 93 -8 133 4 155 47 19 36 18 65 -3 113 l-17 38 -34 -47 c-37 -52 -112
-105 -148 -105 -13 0 -37 7 -53 15 -28 14 -70 60 -70 75 0 5 16 24 35 44 75
77 75 115 0 206 -25 30 -45 61 -45 68 0 7 14 25 30 39 45 37 113 129 150 203
26 52 34 81 38 140 4 71 6 77 33 92 l28 16 5 -56 c25 -244 47 -338 113 -471
31 -63 37 -86 41 -158 8 -148 -34 -280 -119 -376 -25 -29 -39 -53 -35 -63 9
-24 59 8 105 69 128 171 184 424 147 663 -26 172 -50 193 -101 87 -16 -35 -33
-63 -37 -63 -11 0 -10 153 2 230 6 36 20 93 31 128 26 79 45 79 76 1z m-4996
-399 c0 -25 -1 -126 -3 -225 -8 -442 -5 -489 30 -617 46 -164 91 -258 125
-258 35 1 38 18 9 46 -16 16 -40 56 -53 89 -22 57 -23 71 -24 290 0 224 1 234
33 370 17 77 32 148 32 157 0 54 21 -5 69 -195 57 -227 113 -434 137 -506 13
-42 13 -46 -15 -105 -16 -33 -27 -64 -24 -69 6 -9 45 -5 74 7 12 5 18 0 23
-21 49 -216 54 -248 44 -254 -22 -14 -94 -19 -126 -10 -56 16 -190 101 -222
139 -52 64 -105 222 -137 412 -15 96 -27 633 -16 762 4 53 6 56 24 45 14 -9
19 -24 20 -57z m4164 -1536 c-55 -273 -136 -802 -151 -984 -3 -47 -17 -114
-29 -150 -27 -79 -120 -277 -250 -540 -118 -236 -163 -339 -171 -391 -8 -46
-7 -46 -134 -18 -111 24 -205 27 -240 9 -14 -7 -64 -51 -113 -98 l-87 -86
-113 49 c-406 174 -924 460 -1254 692 -288 202 -572 464 -719 665 -71 96 -192
304 -182 313 2 2 35 -48 73 -112 139 -228 222 -311 500 -496 149 -99 253 -151
342 -173 38 -10 79 -27 93 -40 14 -12 45 -32 70 -43 41 -19 65 -21 296 -21
359 0 562 24 808 96 174 51 246 8 246 -148 0 -34 4 -48 13 -48 18 0 200 188
306 315 117 141 245 311 334 443 76 112 177 300 177 329 0 9 22 61 50 117 44
89 79 190 135 389 27 93 26 61 0 -69z"/>
<path d="M4000 5451 c0 -87 67 -358 94 -381 11 -9 13 10 12 107 0 65 2 138 7
163 l7 45 -60 48 -60 48 0 -30z"/>
<path d="M3702 5178 c22 -168 59 -331 89 -391 12 -23 41 -67 64 -97 82 -107
95 -160 42 -170 l-28 -5 38 -60 c21 -33 51 -81 66 -106 l27 -47 -27 -38 c-14
-22 -50 -69 -79 -106 -90 -115 -103 -183 -50 -261 l24 -35 -36 -23 c-39 -25
-82 -82 -82 -107 0 -8 10 0 23 18 23 36 65 64 107 75 26 6 26 6 269 -202 30
-26 79 -59 110 -74 98 -47 141 -118 121 -203 -20 -87 -90 -138 -184 -134 -34
2 -61 8 -63 15 -2 6 15 23 38 36 l42 25 -30 30 c-54 55 -139 51 -221 -8 -37
-27 -82 -92 -82 -120 0 -18 54 -10 95 15 51 32 71 31 131 -2 42 -24 60 -28
131 -28 67 0 87 4 110 21 61 45 106 173 93 261 -6 41 -21 58 -177 216 -188
189 -223 240 -223 325 0 38 6 55 28 81 l28 34 78 -84 c43 -46 123 -139 179
-206 78 -95 104 -120 114 -111 7 6 13 16 13 23 0 7 -38 66 -84 131 -78 110
-156 247 -156 275 0 14 52 5 130 -22 30 -10 56 -19 59 -19 3 0 -34 39 -80 88
-97 99 -129 142 -129 170 0 25 72 122 139 187 61 59 64 47 16 -60 -20 -43 -34
-81 -33 -86 2 -4 38 -39 81 -78 l77 -71 108 0 c158 0 180 27 47 57 -59 13 -75
22 -118 65 -27 27 -47 51 -44 54 25 25 608 36 696 13 28 -7 50 -18 48 -23 -5
-14 -102 -53 -185 -74 l-67 -17 50 -3 c27 -2 88 2 135 8 154 20 147 17 154 63
4 23 14 49 22 58 14 15 11 20 -26 51 -82 71 -293 161 -520 224 l-125 34 140
-5 c156 -5 295 -33 495 -100 89 -30 114 -34 125 -25 39 32 -3 165 -67 214
-113 86 -361 162 -735 226 -189 32 -223 35 -223 21 0 -5 20 -33 45 -62 25 -29
45 -57 45 -62 0 -6 -18 -7 -42 -4 -170 23 -247 30 -262 24 -15 -6 -17 -14 -12
-47 7 -46 3 -48 -67 -24 -94 32 -174 151 -193 287 -3 23 -8 53 -11 67 -5 23
-6 24 -13 5 -32 -77 26 -293 115 -435 14 -22 23 -45 20 -50 -18 -28 -116 9
-160 61 -46 54 -101 183 -142 332 -21 75 -40 137 -43 137 -3 0 2 -64 12 -142z
m818 -610 c1 -13 7 -34 15 -48 22 -38 19 -40 -40 -40 -30 0 -55 2 -55 5 0 11
32 70 48 88 21 23 32 21 32 -5z m255 2 c33 -36 -13 -83 -53 -54 -26 18 -27 31
-5 56 21 23 36 23 58 -2z m163 -5 c38 -16 82 -52 82 -67 0 -4 -36 -8 -80 -8
l-80 0 0 38 c0 58 13 64 78 37z"/>
<path d="M3450 5192 c0 -75 -22 -153 -64 -225 -42 -70 -54 -78 -101 -62 -21 8
-59 28 -84 45 -53 38 -73 36 -187 -16 -42 -19 -79 -33 -81 -30 -3 3 0 19 6 37
l11 32 -58 -6 c-76 -7 -164 -38 -295 -104 -107 -55 -109 -56 -134 -112 -28
-62 -61 -206 -50 -217 4 -4 29 14 57 40 56 52 141 96 240 123 52 14 104 18
257 18 l192 0 35 -34 c23 -22 33 -38 26 -45 -5 -5 -80 -12 -167 -16 -243 -12
-341 -54 -424 -183 -31 -48 -49 -66 -82 -79 l-42 -17 36 0 37 -1 -2 -52 -1
-53 65 -22 c36 -12 81 -22 100 -22 19 0 28 3 20 6 -40 15 -90 66 -90 90 0 21
43 113 53 113 1 0 24 7 50 15 l48 14 10 -28 c17 -49 108 -73 198 -51 67 16
108 55 117 109 7 45 19 50 71 31 33 -13 123 -72 123 -81 0 -4 -26 -14 -57 -23
l-58 -16 73 5 c44 2 72 0 72 -6 0 -6 -23 -32 -50 -59 -93 -90 -300 -170 -405
-157 -37 5 -38 4 -21 -9 11 -8 45 -24 75 -36 79 -31 267 -31 361 0 35 12 65
20 67 18 7 -6 -98 -144 -148 -195 -30 -30 -46 -50 -35 -44 36 20 159 149 226
238 130 173 157 264 161 545 1 104 -16 292 -28 314 -3 4 -18 -16 -34 -45 -35
-65 -71 -99 -105 -99 -35 0 -37 17 -14 85 40 115 66 335 40 335 -6 0 -10 -29
-10 -68z m-374 -737 c7 -29 -10 -55 -36 -55 -26 0 -43 26 -36 55 5 20 13 25
36 25 23 0 31 -5 36 -25z"/>
<path d="M3685 3675 c25 -24 45 -49 45 -55 0 -5 4 -10 9 -10 20 0 -12 61 -44
85 -52 40 -58 29 -10 -20z"/>
<path d="M3308 3532 c-87 -96 -161 -240 -227 -439 -53 -163 -71 -261 -76 -423
-4 -120 -3 -126 5 -55 18 157 48 263 107 368 70 128 98 172 142 227 36 44 36
45 36 140 0 87 3 102 31 158 17 34 27 62 23 62 -3 0 -22 -17 -41 -38z"/>
<path d="M3478 3319 c-9 -5 -28 -29 -42 -54 -25 -41 -37 -49 -73 -48 -42 2 38
-64 127 -104 l55 -25 40 20 c22 11 50 23 63 27 12 3 22 14 22 23 0 27 -50 90
-99 126 -56 40 -73 46 -93 35z"/>
<path d="M3957 2667 c-65 -34 -162 -42 -207 -16 -17 9 -55 13 -115 13 -137 -1
-247 -49 -322 -140 -21 -26 -48 -59 -60 -73 -15 -18 -31 -26 -54 -26 -29 0
-34 -4 -42 -34 -6 -26 -5 -38 6 -49 14 -13 25 -11 101 17 76 27 109 32 287 46
401 30 561 15 599 -55 28 -52 -75 -91 -299 -113 l-125 -12 -20 -35 c-27 -46
-30 -190 -5 -215 13 -14 49 -17 213 -20 l198 -3 34 74 c45 100 71 133 121 155
23 10 97 57 166 106 68 48 165 115 215 148 50 33 91 64 92 68 0 16 -57 60
-110 84 -127 57 -406 114 -545 111 -56 -1 -81 -7 -128 -31z m333 -13 c203 -35
420 -114 420 -153 0 -8 -284 -6 -296 2 -17 10 -226 22 -399 22 -199 0 -289 -7
-440 -35 -60 -11 -141 -25 -180 -30 -38 -6 -78 -13 -89 -16 -36 -12 25 76 83
117 101 73 252 99 362 63 73 -24 162 -15 230 24 52 29 58 31 139 26 47 -3 123
-12 170 -20z"/>
<path d="M2192 3309 c-39 -184 -41 -243 -12 -259 44 -24 151 42 149 92 0 12
-24 90 -53 172 l-52 149 -32 -154z"/>
</g>
</svg>
