<?xml version="1.0" standalone="no"?>
<!DOCTYPE svg PUBLIC "-//W3C//DTD SVG 20010904//EN"
 "http://www.w3.org/TR/2001/REC-SVG-20010904/DTD/svg10.dtd">
<svg version="1.0" xmlns="http://www.w3.org/2000/svg"
 width="920.000000pt" height="469.000000pt" viewBox="0 0 920.000000 469.000000"
 preserveAspectRatio="xMidYMid meet">

<g transform="translate(0.000000,469.000000) scale(0.100000,-0.100000)"
fill="#000000" stroke="none">
<path d="M4980 3200 c0 -5 5 -10 10 -10 6 0 10 5 10 10 0 6 -4 10 -10 10 -5 0
-10 -4 -10 -10z"/>
<path d="M4777 3184 c-4 -4 -40 -8 -80 -8 l-72 -1 0 -30 0 -30 113 -9 112 -9
0 -37 c0 -58 -19 -74 -79 -71 -31 1 -51 -2 -51 -8 0 -6 15 -11 34 -11 69 0 83
-19 40 -53 -15 -11 -41 -50 -58 -86 l-31 -66 -88 3 -88 3 3 -33 3 -33 80 -3
c44 -1 94 -9 112 -17 17 -8 35 -15 40 -15 6 0 18 -10 29 -22 19 -21 19 -21 -3
-16 -36 9 -27 0 22 -22 25 -12 43 -25 40 -29 -3 -5 4 -20 15 -32 11 -13 19
-20 20 -15 0 5 -7 18 -17 28 -9 10 -11 18 -5 18 12 0 42 -27 42 -38 0 -4 16
-25 35 -46 26 -29 35 -35 35 -22 0 14 7 11 32 -15 20 -22 33 -30 35 -21 3 7
-1 20 -9 29 -11 15 -11 16 6 9 20 -7 20 -7 0 15 -18 22 -17 22 16 -2 19 -13
41 -22 48 -21 8 2 11 -1 8 -7 -4 -5 -2 -12 4 -16 5 -3 10 1 10 9 0 21 47 66
68 66 27 0 40 -13 58 -55 9 -22 19 -34 21 -27 3 6 9 10 14 6 5 -3 9 10 9 28
-1 53 -37 289 -46 298 -5 5 -27 2 -49 -6 -56 -19 -143 -24 -156 -8 -7 8 -7 14
1 19 7 4 7 12 0 26 -6 11 -15 17 -21 14 -5 -4 -9 -1 -9 4 0 6 6 11 14 11 21 0
106 80 106 100 0 14 11 20 50 25 47 6 57 4 143 -40 50 -26 108 -59 127 -73 60
-43 120 -110 120 -133 0 -12 -3 -19 -6 -16 -4 3 -14 2 -23 -2 -11 -6 -23 -4
-36 6 -16 13 -17 15 -2 10 9 -4 17 -2 17 3 0 6 7 10 16 10 10 0 6 8 -14 25
-28 24 -37 25 -147 25 -108 0 -117 -1 -110 -17 4 -10 14 -67 22 -128 8 -60 16
-123 19 -140 3 -16 18 -46 35 -65 l30 -35 -14 35 c-8 19 -20 62 -27 95 -6 33
-16 80 -21 104 -9 38 -8 47 9 64 18 18 21 18 50 3 39 -20 47 -55 46 -198 -1
-77 3 -108 12 -112 7 -3 14 8 18 29 4 19 36 90 71 159 36 68 65 131 65 140 0
9 4 16 9 16 10 0 46 -155 61 -264 5 -43 17 -102 26 -131 15 -52 17 -55 85 -89
l71 -36 -7 28 c-3 15 -8 53 -10 85 -5 65 -22 135 -38 157 -10 13 -10 13 5 2
24 -19 54 -106 62 -179 9 -85 23 -120 49 -127 45 -12 48 -8 27 35 -29 57 -16
62 30 12 21 -24 50 -47 65 -53 36 -14 108 -13 122 1 9 9 18 8 38 -5 19 -13 30
-14 43 -6 15 10 14 10 -4 5 -13 -3 -27 2 -38 13 -14 17 -15 30 -7 106 7 55 16
92 26 102 9 9 13 19 10 22 -3 4 -10 0 -15 -8 -6 -8 -10 -13 -10 -10 0 3 -1 94
-3 203 l-2 198 25 -6 c14 -4 36 -6 50 -5 62 5 531 -3 578 -10 l52 -7 0 37 0
36 108 13 c59 6 130 16 157 20 28 5 85 14 128 22 l77 13 0 104 c0 95 -1 104
-17 97 -49 -20 -128 -45 -141 -45 -11 0 -12 10 -7 51 7 49 6 52 -14 46 -12 -3
-19 -1 -15 4 7 12 -157 11 -176 -1 -11 -7 -1 -10 35 -11 49 -2 49 -2 -20 -11
-38 -6 -89 -11 -112 -11 -32 -1 -39 -4 -31 -14 16 -19 2 -43 -26 -43 -29 0
-85 -44 -73 -57 5 -4 35 -8 68 -8 l59 0 0 -70 0 -71 -72 3 c-40 2 -139 8 -221
13 -81 6 -200 10 -264 10 l-116 0 5 38 c3 22 1 42 -7 49 -7 6 -11 31 -9 62 1
28 -1 51 -4 51 -18 -1 -32 -18 -26 -33 4 -13 1 -17 -15 -17 -12 0 -21 -4 -21
-10 0 -5 9 -10 20 -10 11 0 20 5 20 10 0 6 4 10 9 10 5 0 7 -15 6 -32 -2 -18
-8 -32 -14 -31 -6 2 -14 -15 -17 -37 l-7 -40 -254 0 -255 0 17 26 c12 18 15
38 12 61 -4 20 -2 31 4 28 5 -4 9 -1 9 5 0 6 9 23 21 39 23 31 43 141 25 141
-6 0 -69 -7 -141 -16 -71 -9 -138 -17 -148 -17 -16 -1 -18 -10 -15 -80 3 -71
1 -78 -17 -81 -11 -2 -45 -8 -76 -14 -32 -6 -118 -8 -200 -5 -115 5 -146 9
-156 22 -16 21 -16 48 0 54 10 4 10 6 0 6 -7 1 -13 8 -13 17 0 8 5 12 10 9 6
-3 10 -1 10 5 0 7 27 9 89 4 81 -6 92 -5 125 15 20 13 36 26 36 30 0 19 -78
39 -93 24 -11 -10 -142 -3 -146 8 -1 6 -9 2 -17 -8 -13 -17 -13 -17 -14 0 0
14 -10 17 -64 17 -35 0 -76 3 -92 6 -16 3 -33 2 -37 -2z m900 -51 l-2 -38 -95
0 c-90 0 -95 1 -98 22 -3 18 3 23 32 29 20 3 63 7 96 8 33 0 60 4 60 9 0 4 2
7 5 7 2 0 4 -17 2 -37z m-19 -76 c9 -10 3 -13 -26 -13 -20 1 -64 -3 -97 -7
-48 -7 -58 -6 -48 4 7 7 43 15 80 19 37 4 71 8 74 9 4 0 11 -5 17 -12z m1471
9 c-12 -10 -59 -15 -59 -6 0 5 14 10 32 10 17 0 29 -2 27 -4z m-89 -16 c-19
-13 -30 -13 -30 0 0 6 10 10 23 10 18 0 19 -2 7 -10z m-195 -29 c-6 -19 -45
-31 -45 -13 0 13 14 29 30 34 20 7 23 3 15 -21z m392 13 c-3 -3 -12 -4 -19 -1
-8 3 -5 6 6 6 11 1 17 -2 13 -5z m-1583 -28 c-5 -12 -164 -19 -164 -7 0 4 17
8 37 9 21 2 39 5 42 8 10 10 89 0 85 -10z m1456 10 c0 -2 -9 -6 -20 -9 -11 -3
-20 -1 -20 4 0 5 9 9 20 9 11 0 20 -2 20 -4z m-85 -16 c-3 -5 -24 -10 -46 -10
-24 0 -38 4 -34 10 3 6 24 10 46 10 24 0 38 -4 34 -10z m110 -22 c-3 -18 -8
-40 -10 -48 -2 -8 -4 -25 -4 -38 -2 -39 -17 -16 -19 28 -2 27 1 39 8 35 6 -4
10 6 10 24 0 17 5 31 11 31 8 0 9 -11 4 -32z m55 11 c0 -11 4 -18 9 -14 5 3
17 -2 25 -11 15 -14 16 -14 16 2 0 10 3 15 6 11 3 -3 17 -1 31 4 21 8 24 7 20
-5 -4 -9 -2 -18 4 -21 5 -4 9 -3 8 2 -4 21 2 33 16 33 16 0 20 -16 6 -24 -4
-3 -6 -17 -3 -31 2 -14 0 -25 -6 -25 -6 0 -17 -3 -26 -6 -11 -4 -16 -1 -16 11
0 11 5 15 15 11 8 -3 15 -1 15 4 0 19 -32 10 -37 -10 -3 -11 -9 -17 -14 -14
-5 3 -9 -1 -9 -8 0 -10 -3 -9 -11 2 -8 11 -12 12 -16 3 -7 -19 -21 -16 -28 7
-4 11 -11 18 -16 14 -5 -3 -7 -9 -5 -13 3 -4 1 -13 -5 -21 -7 -12 -9 -10 -9 6
0 12 -7 25 -16 28 -8 3 -12 10 -9 16 4 6 11 8 16 5 5 -4 9 10 9 29 0 25 4 36
15 36 8 0 15 -9 15 -21z m-1553 -16 c4 -9 1 -19 -5 -21 -7 -2 -12 -11 -13 -20
0 -11 -2 -12 -6 -4 -6 14 -43 16 -43 2 0 -17 -33 -11 -59 11 -31 25 -22 33 47
40 31 3 61 7 65 8 4 0 11 -7 14 -16z m1443 -13 c0 -5 -10 -10 -22 -10 -13 0
-48 -3 -78 -6 -38 -5 -52 -3 -45 4 17 18 145 28 145 12z m-2072 -43 c2 -21 -2
-44 -7 -51 -8 -10 -7 -24 6 -52 21 -49 24 -64 12 -64 -5 0 -9 6 -9 14 0 8 -13
40 -29 71 -40 77 -45 102 -24 114 32 19 48 8 51 -32z m32 12 c0 -6 -4 -7 -10
-4 -5 3 -10 11 -10 16 0 6 5 7 10 4 6 -3 10 -11 10 -16z m2034 2 c6 -9 -131
-27 -140 -18 -3 3 18 10 48 15 72 13 86 14 92 3z m-10 -29 c9 -15 -62 -33 -99
-26 -50 9 -44 22 13 27 26 2 55 4 64 5 9 1 19 -2 22 -6z m-1441 -9 c-13 -2
-33 -2 -45 0 -13 2 -3 4 22 4 25 0 35 -2 23 -4z m480 -109 l46 -7 -4 -194 c-5
-179 -13 -233 -36 -233 -3 0 -52 47 -107 104 l-102 105 0 115 0 116 79 0 c43
0 99 -3 124 -6z m-290 -91 c5 -42 3 -51 -8 -47 -10 4 -16 -8 -21 -43 -5 -26
-9 -51 -10 -55 -1 -5 -2 -16 -3 -25 -1 -12 -4 -14 -12 -6 -7 7 -3 43 17 122
15 61 28 110 29 109 1 -2 5 -26 8 -55z m-390 21 c9 -3 17 -10 17 -15 0 -6 -8
-8 -17 -6 -54 15 -75 16 -94 6 -28 -14 -38 -3 -13 16 18 14 55 14 107 -1z
m134 -69 c-2 -5 -19 -11 -38 -12 -19 -1 -26 1 -16 4 9 2 15 8 13 11 -2 4 7 7
20 7 13 0 23 -4 21 -10z m233 -210 c0 -11 -35 30 -51 60 -5 11 4 4 21 -15 16
-19 30 -39 30 -45z m115 -155 c3 -5 1 -10 -4 -10 -6 0 -11 5 -11 10 0 6 2 10
4 10 3 0 8 -4 11 -10z"/>
<path d="M7200 2930 c0 -5 7 -10 16 -10 8 0 12 5 9 10 -3 6 -10 10 -16 10 -5
0 -9 -4 -9 -10z"/>
<path d="M5578 2963 c12 -2 30 -2 40 0 9 3 -1 5 -23 4 -22 0 -30 -2 -17 -4z"/>
<path d="M4975 2880 c3 -5 8 -10 11 -10 2 0 4 5 4 10 0 6 -5 10 -11 10 -5 0
-7 -4 -4 -10z"/>
<path d="M5018 3183 c7 -3 16 -2 19 1 4 3 -2 6 -13 5 -11 0 -14 -3 -6 -6z"/>
<path d="M6285 3179 l-50 -6 63 0 c44 0 67 -4 74 -14 8 -12 9 -12 6 0 -6 21
-37 27 -93 20z"/>
<path d="M5860 3130 c0 -6 7 -22 16 -36 9 -13 14 -27 11 -30 -3 -3 -13 9 -22
26 -12 24 -20 29 -28 21 -8 -8 -7 -19 6 -41 10 -17 14 -30 9 -30 -6 0 -12 7
-16 15 -3 8 -18 15 -34 15 -30 0 -71 -24 -60 -35 23 -24 189 -28 211 -6 11 11
1 31 -16 31 -7 0 -20 18 -29 40 -15 36 -48 56 -48 30z"/>
<path d="M6044 3115 c-7 -28 7 -51 37 -60 10 -4 19 -12 19 -20 0 -18 -47 -25
-61 -9 -6 8 -15 11 -20 8 -17 -10 -9 -22 20 -29 29 -6 101 16 101 32 0 4 -14
20 -32 34 -21 18 -29 32 -25 43 8 20 43 21 51 1 8 -22 26 -18 26 5 0 18 -7 20
-55 20 -50 0 -55 -2 -61 -25z"/>
<path d="M6456 3123 c-6 -14 -5 -15 5 -6 7 7 10 15 7 18 -3 3 -9 -2 -12 -12z"/>
<path d="M6192 3121 c4 -13 18 -16 19 -4 0 4 -5 9 -11 12 -7 2 -11 -2 -8 -8z"/>
<path d="M6360 3114 c0 -3 11 -9 25 -14 14 -5 26 -18 26 -30 1 -11 2 -28 3
-37 0 -10 7 -21 16 -25 21 -9 78 -10 63 0 -15 10 -5 52 12 52 7 0 18 -7 25
-15 10 -12 9 -16 -4 -21 -22 -9 -20 -24 4 -24 11 0 20 3 19 8 -1 4 2 17 6 30
8 25 25 30 25 7 0 -8 -4 -15 -10 -15 -5 0 -10 -7 -10 -15 0 -9 9 -15 24 -15
22 0 35 21 36 56 0 16 -40 25 -60 14 -22 -12 -60 -1 -60 16 0 19 -7 18 -35 -5
-18 -13 -21 -21 -12 -30 8 -8 7 -11 -4 -11 -10 0 -20 15 -27 38 -9 29 -17 37
-37 38 -14 1 -25 0 -25 -2z"/>
<path d="M6296 3068 c-19 -63 -7 -88 19 -38 8 16 22 30 30 30 19 0 19 -10 -1
-38 -14 -21 -14 -22 10 -22 14 0 26 5 26 11 0 5 5 7 10 4 10 -6 4 37 -7 58 -7
12 -83 8 -87 -5z"/>
<path d="M6221 3054 c0 -11 3 -14 6 -6 3 7 2 16 -1 19 -3 4 -6 -2 -5 -13z"/>
<path d="M6649 3063 c-1 -5 -1 -12 0 -16 1 -4 -3 -17 -9 -27 -9 -17 -7 -20 10
-20 12 0 24 9 29 24 11 29 46 46 38 19 -2 -10 -8 -25 -12 -35 -12 -30 29 -15
43 16 10 24 10 31 0 38 -16 10 -98 11 -99 1z"/>
<path d="M5728 2973 c6 -2 18 -2 25 0 6 3 1 5 -13 5 -14 0 -19 -2 -12 -5z"/>
<path d="M5798 2963 c6 -2 18 -2 25 0 6 3 1 5 -13 5 -14 0 -19 -2 -12 -5z"/>
<path d="M5858 2963 c12 -2 30 -2 40 0 9 3 -1 5 -23 4 -22 0 -30 -2 -17 -4z"/>
<path d="M5350 2845 c-7 -8 -21 -15 -32 -15 -16 0 -18 -3 -9 -14 6 -7 41 -16
80 -20 38 -3 78 -9 88 -12 10 -3 -9 12 -42 35 -68 46 -68 46 -85 26z"/>
<path d="M7250 2797 c0 -36 -29 -89 -30 -54 0 9 -1 17 -3 17 -1 0 -16 -4 -34
-9 -22 -7 -33 -6 -37 2 -3 9 -5 8 -5 0 -1 -7 -12 -13 -25 -13 -21 0 -25 -5
-28 -37 -2 -20 -8 -38 -14 -40 -13 -4 -44 60 -43 90 0 21 1 21 9 2 8 -18 9
-17 9 8 1 17 -4 27 -13 27 -21 0 -27 -39 -10 -78 7 -19 14 -41 14 -48 0 -20
-18 -17 -23 4 -4 13 -5 12 -6 -5 -1 -27 15 -38 34 -23 8 7 15 8 15 3 0 -5 16
-7 35 -5 27 3 35 9 36 26 1 16 2 17 6 4 5 -22 36 -23 89 -5 22 7 52 12 67 11
26 -3 28 0 25 25 -1 19 6 38 25 60 48 57 29 48 -45 -21 -65 -62 -98 -82 -98
-60 0 4 8 15 18 24 9 9 22 23 28 31 14 16 23 97 12 97 -5 0 -8 -15 -8 -33z
m-63 -79 c-3 -8 -6 -5 -6 6 -1 11 2 17 5 13 3 -3 4 -12 1 -19z m25 -10 c-9 -9
-12 -7 -12 12 0 19 3 21 12 12 9 -9 9 -15 0 -24z m-72 -13 c0 -5 -5 -3 -10 5
-5 8 -10 20 -10 25 0 6 5 3 10 -5 5 -8 10 -19 10 -25z m29 23 c0 -7 -4 -22 -8
-33 -7 -17 -9 -15 -13 13 -3 22 -1 32 9 32 7 0 13 -6 12 -12z m-49 -40 c0 -32
-15 -19 -17 15 -2 23 0 28 7 17 5 -8 10 -23 10 -32z m176 15 c-10 -10 -19 5
-10 18 6 11 8 11 12 0 2 -7 1 -15 -2 -18z"/>
<path d="M6962 2753 c-1 -20 -6 -41 -12 -47 -30 -30 4 -102 35 -76 18 15 19
38 3 107 -15 62 -24 68 -26 16z"/>
<path d="M7069 2753 c-1 -10 -3 -30 -5 -45 -1 -15 1 -30 7 -33 5 -4 9 15 9 44
0 47 -9 73 -11 34z"/>
<path d="M6885 2631 c3 -35 23 -136 44 -225 41 -166 61 -299 61 -398 0 -72 -7
-88 -37 -88 -13 0 -21 -4 -18 -10 3 -6 -4 -10 -18 -10 -16 0 -28 -8 -36 -26
-10 -22 -9 -25 6 -21 10 3 35 8 56 12 21 3 35 10 32 16 -4 5 -1 9 4 9 6 0 11
-10 12 -22 l0 -23 9 23 c5 12 17 22 26 22 15 0 15 -2 2 -22 -13 -20 -25 -23
-93 -26 -99 -4 -107 -1 -92 32 7 14 19 28 27 30 13 4 -114 -2 -145 -7 -5 -1
-11 15 -13 36 -3 30 -7 37 -20 33 -9 -3 -48 -8 -87 -12 -82 -8 -184 -52 -150
-64 11 -4 38 -6 60 -4 153 12 189 13 155 3 -19 -6 -99 -11 -177 -12 -78 -1
-140 -3 -139 -4 19 -19 76 -49 82 -43 5 4 92 20 193 35 101 15 190 29 198 32
7 3 13 1 13 -5 0 -12 -13 -15 -175 -37 -66 -10 -145 -22 -175 -27 l-54 -10 38
-20 c29 -15 35 -22 27 -32 -13 -16 5 -34 38 -41 25 -5 39 13 17 21 -17 6 -22
24 -8 24 10 0 78 -62 107 -98 l18 -22 -43 15 c-25 9 -58 17 -75 19 -21 2 -36
12 -50 34 -14 22 -26 31 -39 28 -21 -5 -66 13 -66 26 0 5 10 6 23 2 22 -6 21
-6 -3 18 -14 13 -31 33 -38 44 -7 10 -5 4 4 -14 14 -30 14 -36 0 -57 -9 -14
-16 -33 -16 -43 0 -19 -29 -65 -30 -47 0 27 23 91 38 103 16 12 16 14 0 26
-10 7 -18 17 -18 21 0 4 -13 26 -28 49 -49 72 -48 82 14 111 55 26 82 60 71
89 -5 13 -11 12 -44 -3 -64 -31 -83 -35 -83 -16 0 9 -6 15 -12 12 -7 -2 -18 3
-24 11 -9 13 -14 13 -35 -1 -38 -25 -79 -23 -137 7 -30 15 -56 26 -58 24 -2
-2 21 -17 52 -32 30 -16 76 -46 100 -67 25 -21 48 -39 52 -39 4 1 -11 16 -33
35 -22 19 -35 35 -29 35 17 0 94 -76 94 -93 0 -9 9 -33 20 -53 24 -41 19 -57
-7 -27 -10 10 -15 14 -12 8 4 -5 8 -26 11 -46 4 -36 4 -37 -20 -21 -23 15 -23
15 -17 -14 l7 -29 -19 30 c-21 32 -51 60 -57 54 -3 -2 11 -26 30 -54 37 -55
53 -124 36 -158 -11 -20 -11 -20 -6 6 4 15 3 44 -2 65 l-8 37 -5 -38 c-8 -52
-26 -42 -24 13 2 43 2 44 -8 13 -16 -53 -27 -46 -24 14 1 32 0 40 -2 18 -2
-22 -9 -44 -15 -50 -8 -7 -9 -3 -5 15 6 24 5 24 -8 6 -14 -18 -15 -16 -15 30
0 27 -4 55 -9 62 -5 8 -6 -8 -3 -39 3 -37 2 -50 -7 -45 -6 4 -11 24 -11 45 0
20 -7 46 -15 57 -14 18 -14 17 -5 -9 13 -36 13 -112 0 -82 -4 11 -13 40 -20
65 -6 25 -20 56 -31 70 -19 24 -19 24 1 -28 24 -63 25 -72 5 -72 -18 0 -45 62
-38 88 2 11 -1 31 -8 43 -12 23 -14 21 -25 -36 l-11 -60 0 59 c0 50 -4 63 -23
78 -13 10 -25 16 -28 14 -3 -3 6 -14 19 -25 l24 -20 -27 -1 c-27 0 -28 2 -28
50 0 47 -2 51 -32 63 -18 8 -39 21 -47 30 -14 18 -36 24 -26 7 3 -5 1 -10 -5
-10 -7 0 -14 9 -17 21 -5 16 -8 18 -15 7 -7 -11 -11 -10 -21 2 -9 11 -41 16
-132 18 -66 2 -142 8 -169 13 -58 11 -81 10 -46 -1 l25 -8 -27 -1 c-16 -1 -28
2 -28 7 0 4 -30 6 -67 6 -38 -1 -62 0 -55 3 6 3 12 12 12 21 0 11 -3 13 -8 6
-4 -6 -26 -13 -49 -16 -33 -5 -43 -3 -46 11 -4 15 -5 15 -6 0 0 -9 -13 -20
-28 -24 -21 -5 -24 -8 -12 -16 12 -7 11 -9 -3 -9 -10 0 -18 -4 -18 -10 0 -5
-16 -10 -35 -10 -34 0 -35 1 -35 38 -1 33 -2 35 -14 19 -8 -11 -17 -14 -20 -8
-12 19 13 26 109 31 28 1 42 4 33 7 -10 2 -18 8 -18 13 0 5 7 6 17 3 11 -4 14
-3 9 5 -4 7 -19 12 -34 12 -43 0 -102 12 -102 20 0 5 8 7 18 5 39 -7 138 -19
145 -17 4 1 7 -3 7 -9 0 -8 4 -8 15 1 17 14 39 4 28 -13 -4 -7 4 -5 17 4 14 9
66 22 115 29 111 15 120 19 100 45 -10 14 -14 16 -15 6 0 -11 -5 -10 -21 5
-20 18 -20 18 -14 -11 5 -21 4 -26 -3 -16 -6 8 -11 9 -13 3 -6 -16 -62 -23
-71 -9 -6 9 -8 8 -8 -3 0 -9 -10 -16 -25 -16 -15 -1 -25 3 -25 12 0 8 -10 15
-22 16 -13 0 0 4 27 7 l50 6 3 52 3 51 -50 -2 c-28 -2 -57 -8 -65 -15 -14 -12
-100 -6 -181 13 -11 2 -28 5 -37 5 -13 1 -18 9 -18 28 0 26 -1 26 -15 7 -12
-17 -12 -20 1 -31 12 -8 14 -20 9 -42 -4 -17 -11 -28 -16 -25 -6 3 -19 -2 -30
-12 -10 -9 -19 -14 -19 -10 0 4 -6 1 -14 -6 -16 -15 -10 -32 7 -22 8 5 9 4 2
-3 -13 -14 -65 -26 -65 -15 0 4 16 24 36 43 56 54 80 109 47 109 -9 0 -13 3
-10 6 3 4 2 15 -3 24 -8 15 -14 16 -35 7 -14 -7 -25 -20 -25 -29 0 -10 -6 -18
-12 -18 -8 0 -5 -7 6 -15 19 -15 19 -15 -2 -15 -12 0 -23 -4 -23 -10 -1 -5 -3
-14 -4 -20 -1 -5 -3 -19 -4 -30 -2 -39 -16 -20 -16 22 0 42 -1 43 -40 50 -61
11 -255 10 -292 -3 -19 -6 -40 -8 -48 -5 -8 3 -29 -2 -47 -12 -21 -10 -63 -17
-118 -18 -82 -2 -86 -4 -112 -34 -38 -46 -42 -68 -11 -62 23 4 25 3 18 -26
l-6 -31 38 5 c30 5 35 3 23 -6 -11 -9 14 -10 104 -5 89 5 117 4 111 -5 -5 -8
15 -9 82 -4 48 4 94 7 100 7 9 0 10 4 2 13 -7 9 -5 13 8 16 13 3 10 6 -10 10
-23 4 -27 2 -22 -12 4 -14 0 -17 -22 -17 -16 0 -22 2 -15 4 21 8 13 27 -19 46
-18 10 -29 20 -26 23 3 3 17 -2 32 -12 22 -14 41 -16 126 -11 76 5 99 3 96 -6
-2 -7 -8 -12 -13 -12 -16 -1 -114 -29 -111 -32 5 -4 210 -43 230 -43 10 0 26
7 35 16 15 15 13 16 -26 12 -27 -2 -38 0 -32 6 6 6 34 10 63 11 48 0 53 2 66
30 12 28 14 28 21 10 12 -28 12 -30 -7 -51 -10 -11 -29 -21 -42 -21 -13 -1
-29 -7 -35 -13 -8 -8 -3 -10 19 -5 84 18 78 19 71 -16 -3 -17 -6 -35 -6 -40 0
-5 -8 -6 -17 -3 -15 5 -15 4 -3 -4 8 -5 66 -15 129 -21 62 -7 127 -17 143 -24
29 -12 27 -12 -29 -12 -79 0 -118 -27 -179 -123 -26 -40 -49 -70 -52 -68 -2 3
12 34 31 71 19 36 29 61 22 55 -9 -7 -16 -6 -25 5 -9 10 -9 15 -1 15 6 0 3 8
-6 18 -14 14 -25 17 -48 10 -37 -10 -37 -10 -30 2 4 6 -1 7 -11 3 -14 -5 -16
-3 -11 10 6 15 3 16 -13 7 -14 -7 -20 -7 -20 0 0 6 -15 8 -38 5 -26 -3 -39 -1
-39 8 0 7 12 12 26 12 14 1 55 2 91 3 l65 3 -34 18 -34 18 33 1 c40 1 50 10
19 16 -190 36 -252 45 -267 37 -19 -10 -55 -15 -262 -36 -154 -15 -230 -33
-295 -70 -74 -41 -260 -157 -276 -171 -8 -8 -21 -14 -27 -14 -7 0 -12 -5 -12
-11 0 -7 15 -9 43 -4 l42 6 -35 -18 c-19 -10 -37 -15 -38 -11 -6 13 -127 9
-141 -4 -11 -11 -13 -10 -8 3 4 12 -1 15 -21 12 -75 -12 -75 -11 -68 -51 17
-92 18 -122 6 -122 -7 0 -43 -20 -80 -45 -64 -42 -88 -68 -72 -78 4 -2 1 -2
-6 -1 -6 2 -24 -15 -38 -38 -25 -39 -25 -41 -10 -82 9 -23 15 -55 15 -71 -2
-30 -2 -30 -10 5 -8 35 -8 35 -6 -7 3 -49 0 -53 -13 -20 l-9 22 0 -23 c-1 -21
-22 -52 -35 -52 -3 0 -6 12 -7 28 -1 26 -2 26 -13 -8 -7 -19 -17 -46 -24 -60
-10 -24 -11 -24 -11 11 -1 20 -8 53 -17 74 l-15 37 -107 -102 c-59 -57 -114
-111 -123 -120 -8 -10 -26 -21 -40 -25 -13 -4 -29 -12 -36 -17 -7 -5 -16 -8
-20 -5 -4 3 -46 -1 -93 -9 -47 -7 -115 -14 -151 -14 -60 0 -67 -2 -79 -25 -17
-31 -26 -25 -10 7 l11 23 -20 -24 c-14 -15 -21 -38 -22 -65 0 -38 -1 -39 -12
-17 -9 18 -8 33 5 70 l17 46 -21 -25 c-18 -22 -20 -22 -16 -5 4 19 0 20 -51
19 -120 -2 -130 35 -35 122 33 29 89 81 126 114 36 34 83 73 105 86 l38 24
-48 -7 -48 -6 3 39 c3 37 5 38 53 50 l50 12 -45 2 c-58 3 -92 12 -98 28 -2 6
1 12 8 12 6 0 8 -5 5 -10 -4 -6 17 -10 57 -10 35 0 88 -7 118 -15 30 -8 58
-15 61 -15 4 0 39 29 79 65 76 68 96 78 85 45 -4 -14 -2 -20 9 -20 10 0 13 6
9 16 -5 14 -1 16 25 12 18 -2 30 -2 27 0 -3 3 0 11 6 18 9 11 6 12 -21 3 -24
-9 -34 -9 -43 0 -9 9 -8 11 4 6 20 -7 85 20 92 40 8 20 0 19 -25 -5 -21 -19
-48 -27 -48 -14 0 4 16 22 35 41 53 51 68 80 67 124 -1 27 2 39 12 39 8 0 24
9 37 20 l24 19 -41 1 -42 0 -1 100 c-1 55 3 108 8 118 8 15 27 21 98 27 134
13 308 12 306 -1 -6 -31 -4 -234 2 -266 6 -31 11 -38 31 -38 21 0 24 3 18 28
-4 15 -10 32 -13 37 -3 6 -6 34 -6 62 0 29 -2 53 -5 53 -5 0 -4 130 2 134 2 1
26 10 53 19 l50 17 -45 -6 c-25 -3 -49 -9 -55 -15 -17 -17 -20 -9 -19 48 l1
58 -4 -53 -4 -53 -82 5 c-45 3 -143 8 -217 12 -187 9 -181 15 -192 -181 -6
-126 -5 -150 8 -159 11 -8 -1 -11 -51 -12 -36 0 -65 3 -65 7 0 4 -52 7 -115 8
-95 0 -116 -2 -123 -16 -14 -23 -3 -50 21 -57 12 -3 69 -6 126 -6 57 0 102 -2
99 -5 -6 -6 -249 -49 -333 -59 -36 -4 -44 -3 -28 4 25 10 22 36 -6 57 -13 9
-17 8 -23 -5 -6 -13 -7 -12 -5 5 1 15 -13 37 -43 68 -41 42 -78 64 -50 30 11
-13 10 -14 -4 -9 -9 3 -15 13 -14 22 4 22 -19 27 -26 5 -3 -12 -4 -10 -3 6 1
13 -4 26 -10 28 -8 3 -13 -5 -13 -21 0 -29 -19 -36 -21 -8 -1 9 -2 22 -4 27
-1 6 -3 21 -3 35 -2 21 -7 25 -35 25 -17 -1 -42 -6 -54 -13 -41 -23 -48 -12
-8 13 22 13 35 25 30 25 -16 0 -84 -49 -114 -82 -24 -27 -27 -28 -27 -9 0 11
2 18 5 16 2 -3 12 8 21 23 43 70 145 109 217 81 36 -13 100 -75 119 -114 l15
-30 -21 25 c-12 13 -29 25 -37 26 -9 2 -19 6 -22 11 -10 14 -50 33 -68 33 -11
-1 -1 -10 22 -22 48 -25 145 -106 145 -121 0 -6 -13 2 -30 18 -16 16 -32 26
-35 23 -3 -3 10 -17 30 -32 19 -15 35 -23 35 -19 0 4 9 -5 21 -22 19 -28 20
-28 13 -5 -3 14 -22 54 -40 90 -54 105 -111 156 -186 166 -51 7 -125 -17 -145
-46 -8 -11 -19 -20 -24 -20 -16 0 -64 -40 -64 -53 0 -5 -6 -12 -14 -15 -13 -4
-11 21 5 79 2 9 -2 22 -11 29 -10 8 -15 9 -15 1 0 -6 -5 -11 -12 -11 -6 0 -9
3 -5 6 3 3 0 12 -6 19 -9 10 -15 10 -26 1 -12 -8 -13 -8 -7 2 4 7 2 13 -6 14
-14 1 -28 4 -40 8 -14 4 -28 7 -39 9 -6 0 -9 9 -7 19 5 17 1 18 -51 10 -104
-17 -184 -80 -266 -213 -79 -127 -124 -268 -141 -444 -4 -41 -8 -83 -9 -95 -1
-12 -3 -28 -4 -37 -1 -13 -21 -21 -79 -33 -42 -9 -105 -23 -139 -31 -34 -8
-73 -15 -87 -15 -32 0 -35 20 -3 21 19 1 20 2 3 6 -40 10 -46 -19 -46 -214 l0
-183 -30 7 c-22 4 -36 0 -50 -12 -33 -30 -23 -36 43 -31 57 5 57 3 0 -10 -31
-6 -29 -17 7 -31 16 -6 30 -18 30 -27 0 -9 8 -16 18 -17 9 0 24 -2 32 -4 37
-9 71 -14 149 -19 46 -4 88 -9 95 -13 14 -9 34 -11 176 -18 63 -3 124 -8 135
-12 29 -10 105 -15 175 -12 44 2 120 -5 120 -11 0 -3 32 -7 72 -8 40 -2 76 -6
82 -9 5 -3 6 -1 3 4 -4 6 4 11 18 11 14 0 23 -4 20 -8 -2 -3 2 -7 10 -7 8 0
11 5 8 11 -3 6 0 5 8 -1 16 -16 33 -17 23 -1 -5 8 -3 8 7 2 14 -9 40 -11 319
-20 383 -12 533 -15 1020 -14 764 0 803 1 815 8 5 4 62 8 125 8 63 1 176 7
250 13 74 6 206 15 292 20 128 8 166 14 205 32 26 12 52 21 57 20 25 -6 115
27 141 51 17 15 34 28 38 28 5 0 -1 12 -13 27 -14 18 -17 30 -11 36 14 14 163
17 236 5 33 -6 89 -10 125 -9 131 2 191 0 213 -7 25 -9 85 -8 137 2 19 3 76 8
125 10 106 5 151 13 179 31 19 12 98 28 136 26 31 -1 159 22 156 28 -2 3 8 6
22 7 43 1 95 12 137 30 45 19 123 14 139 -8 6 -8 23 -21 38 -29 14 -8 52 -29
84 -46 57 -32 128 -52 175 -47 13 1 88 3 167 4 78 1 142 5 142 9 0 4 16 8 36
9 20 2 54 12 75 23 22 10 39 16 39 12 0 -5 6 -1 13 8 7 9 29 21 50 28 54 18
96 65 138 157 73 158 99 287 101 501 2 152 -7 253 -22 263 -7 4 -8 18 -4 35 5
22 4 26 -6 20 -10 -6 -12 -3 -8 13 4 12 0 41 -7 64 -8 24 -14 35 -14 26 -2
-32 -21 -30 -21 2 0 17 4 29 10 25 16 -10 -11 54 -44 103 -17 26 -43 53 -57
61 -53 30 -118 -13 -163 -108 -17 -34 -33 -61 -37 -61 -3 0 -18 18 -33 41 -27
40 -27 41 -6 46 20 5 20 6 3 18 -10 7 -22 14 -28 16 -5 1 -16 9 -23 16 -8 7
-18 11 -23 7 -5 -3 -12 2 -15 11 -5 13 -9 13 -22 3 -12 -10 -14 -10 -8 0 4 6
3 12 -1 12 -5 0 -15 -6 -22 -12 -10 -11 -11 -9 -5 6 6 16 4 18 -14 14 -12 -4
-22 -1 -22 4 0 6 -8 4 -17 -3 -11 -10 -14 -10 -9 -1 4 7 2 12 -4 12 -6 0 -8 5
-4 11 5 8 -16 10 -75 7 -58 -3 -78 -1 -71 6 7 7 89 13 213 17 l202 5 -192 2
c-126 1 -193 6 -195 13 -2 6 -16 -1 -31 -15 -28 -26 -64 -39 -39 -14 17 17 15
29 -3 22 -9 -4 -15 0 -15 10 0 18 -15 22 -25 6 -3 -5 -1 -10 6 -10 7 0 9 -3 6
-6 -7 -8 -37 14 -37 27 0 5 7 6 15 3 10 -4 15 0 15 11 0 10 5 13 12 9 8 -5 9
-2 5 9 -3 9 -2 19 3 22 6 4 10 -10 10 -31 0 -47 10 -39 12 9 1 25 5 34 15 30
9 -4 10 -9 3 -17 -6 -9 -6 -16 2 -24 9 -9 9 -12 -2 -12 -11 0 -11 -3 -2 -12 8
-8 15 -8 25 0 8 7 16 10 18 8 2 -2 4 68 5 155 l1 160 -26 -5 c-41 -9 -79 -14
-171 -25 -165 -19 -199 -21 -205 -11 -4 6 -12 4 -22 -6 -15 -15 -13 -28 20
-162 41 -168 53 -236 62 -376 5 -71 4 -97 -4 -92 -7 4 -11 41 -11 90 0 96 -18
210 -60 381 -43 177 -49 209 -45 213 2 2 8 -11 14 -29 8 -29 9 -30 10 -9 0 14
-8 41 -19 60 l-19 35 4 -64z m429 -69 c0 -15 4 -21 13 -18 23 9 14 -22 -13
-43 -21 -16 -23 -23 -15 -40 14 -25 14 -31 1 -31 -5 0 -10 9 -10 20 0 24 -6
25 -26 6 -16 -17 -19 -30 -4 -21 6 3 10 1 10 -5 0 -7 -7 -9 -15 -6 -9 3 -25 0
-36 -7 -16 -10 -21 -9 -29 3 -18 28 -16 126 3 148 9 11 14 9 29 -10 12 -16 18
-18 18 -8 0 17 37 39 60 36 9 -1 15 -11 14 -24z m-320 -122 c5 -33 4 -41 -4
-28 -6 9 -12 45 -15 80 -4 50 -3 56 4 28 5 -19 12 -55 15 -80z m-2169 -30 c3
-5 1 -10 -4 -10 -6 0 -11 5 -11 10 0 6 2 10 4 10 3 0 8 -4 11 -10z m2210 -149
c19 -119 29 -254 17 -247 -5 3 -12 52 -15 110 -4 57 -13 130 -22 162 -8 32
-15 70 -14 84 l0 25 10 -24 c5 -13 16 -63 24 -110z m-2607 81 c2 -7 -2 -10
-12 -6 -9 3 -16 11 -16 16 0 13 23 5 28 -10z m2812 10 c0 -4 -14 -9 -31 -10
-19 -2 -28 2 -24 8 7 12 55 14 55 2z m-42 -52 c-1 -16 -6 -30 -11 -30 -5 0 -6
7 -3 16 3 9 6 22 6 30 0 8 2 14 5 14 3 0 4 -13 3 -30z m-2868 -4 c0 -3 -4 -8
-10 -11 -5 -3 -10 -1 -10 4 0 6 5 11 10 11 6 0 10 -2 10 -4z m-120 -20 c0 -2
-7 -6 -15 -10 -8 -3 -15 -1 -15 4 0 6 7 10 15 10 8 0 15 -2 15 -4z m-80 -22
c0 -2 -7 -4 -15 -4 -8 0 -15 4 -15 10 0 5 7 7 15 4 8 -4 15 -8 15 -10z m237
10 c-3 -3 -12 -4 -19 -1 -8 3 -5 6 6 6 11 1 17 -2 13 -5z m823 -40 c0 -8 -5
-12 -10 -9 -6 4 -8 11 -5 16 9 14 15 11 15 -7z m-975 -14 c-3 -5 -11 -10 -16
-10 -6 0 -7 5 -4 10 3 6 11 10 16 10 6 0 7 -4 4 -10z m2950 -47 c-4 -17 -10
-22 -16 -16 -6 6 -6 20 2 39 13 34 24 16 14 -23z m-2438 31 c-3 -3 -12 -4 -19
-1 -8 3 -5 6 6 6 11 1 17 -2 13 -5z m253 2 c0 -2 -7 -7 -16 -10 -8 -3 -12 -2
-9 4 6 10 25 14 25 6z m75 -6 c-3 -5 -12 -7 -20 -3 -21 7 -19 13 6 13 11 0 18
-4 14 -10z m2873 -10 c7 -11 19 -20 27 -20 16 0 40 -38 31 -48 -3 -3 2 -14 11
-25 17 -18 17 -19 0 -29 -18 -9 -18 -10 0 -24 10 -7 13 -14 7 -14 -6 0 -19 9
-29 20 -14 16 -15 23 -5 34 10 13 8 16 -13 21 -13 4 -30 17 -37 31 -9 16 -22
24 -39 24 -19 0 -22 3 -13 12 23 23 12 29 -17 9 -40 -29 -48 -26 -14 4 34 30
74 32 91 5z m-2751 -46 c-3 -3 -12 -4 -19 -1 -8 3 -5 6 6 6 11 1 17 -2 13 -5z
m2667 -9 c-4 -8 -8 -15 -10 -15 -2 0 -4 7 -4 15 0 8 4 15 10 15 5 0 7 -7 4
-15z m79 -41 c-3 -8 -9 -14 -14 -14 -5 0 -9 -9 -9 -19 0 -37 -18 -31 -23 7 -6
47 20 84 39 57 7 -9 10 -23 7 -31z m-2964 7 c-15 -5 -22 6 -14 19 6 9 10 9 16
-1 5 -8 4 -15 -2 -18z m468 23 c-3 -3 -12 -4 -19 -1 -8 3 -5 6 6 6 11 1 17 -2
13 -5z m-157 -24 c0 -5 -25 -8 -55 -8 -30 1 -58 -2 -62 -5 -3 -4 23 -7 58 -7
36 0 70 5 76 11 6 6 46 11 90 12 165 1 288 -4 300 -11 17 -11 30 -132 14 -132
-6 0 -11 5 -11 10 0 6 -5 10 -11 10 -6 0 -18 7 -27 16 -12 12 -27 15 -59 10
-51 -7 -55 -1 -10 17 l32 14 -33 5 c-21 3 -39 0 -47 -9 -18 -18 -25 -16 -25 6
0 21 -36 35 -44 17 -3 -7 -7 -8 -13 -1 -4 6 -69 11 -143 13 -74 1 -148 6 -164
10 -25 7 -27 10 -14 22 10 11 32 14 81 12 37 -2 67 -7 67 -12z m-561 4 c17 -4
31 -10 31 -14 0 -5 -16 -4 -35 1 -27 8 -42 6 -66 -6 -17 -9 -33 -14 -36 -11
-4 3 9 12 28 20 40 18 38 18 78 10z m3151 -24 c8 -15 6 -30 -12 -67 -12 -27
-32 -84 -44 -128 -13 -46 -23 -69 -24 -55 l-2 25 -9 -25 c-13 -38 -1 52 17
124 15 60 49 146 58 146 3 0 10 -9 16 -20z m-3439 -153 c-16 -16 -31 2 -31 39
0 22 6 37 16 41 8 3 14 15 13 27 0 11 0 26 2 31 2 6 5 -21 6 -59 2 -38 0 -73
-6 -79z m269 136 c-13 -3 -30 -12 -38 -21 -7 -10 -11 -11 -7 -4 11 21 -13 13
-29 -10 -13 -18 -16 -19 -16 -6 0 25 40 48 80 47 27 -1 29 -3 10 -6z m-563
-100 c18 -40 4 -73 -32 -73 -20 0 -25 5 -25 24 0 13 7 37 15 52 8 16 15 38 16
49 l1 20 5 -20 c3 -11 12 -34 20 -52z m62 45 c0 -22 -1 -22 -9 -3 -7 15 -9 16
-9 4 -1 -9 6 -32 14 -52 13 -32 13 -36 -5 -52 -18 -16 -20 -16 -26 -2 -3 9 -4
22 -1 29 4 8 6 6 6 -4 1 -22 21 -24 21 -3 0 9 -7 27 -16 40 -9 14 -13 33 -9
45 9 27 35 26 34 -2z m514 15 c-7 -2 -19 -2 -25 0 -7 3 -2 5 12 5 14 0 19 -2
13 -5z m570 -13 c-3 -12 -8 -19 -11 -16 -5 6 5 36 12 36 2 0 2 -9 -1 -20z
m-803 -25 c0 -5 -5 -3 -10 5 -7 11 -9 4 -7 -22 2 -21 0 -38 -5 -38 -10 0 -11
74 -1 83 7 8 23 -12 23 -28z m23 8 c-3 -16 -6 -36 -5 -45 0 -10 -3 -18 -9 -18
-11 0 -11 15 -3 59 4 17 11 31 15 31 5 0 6 -12 2 -27z m723 10 c13 -5 15 -3 9
8 -5 8 20 -17 55 -55 77 -81 119 -157 160 -287 33 -106 34 -113 20 -104 -5 3
-10 17 -10 30 0 13 -6 30 -14 38 -9 8 -12 24 -9 36 4 18 2 20 -13 14 -17 -6
-17 -5 -6 10 15 18 7 41 -10 31 -7 -5 -9 2 -4 21 6 23 4 26 -10 21 -13 -5 -15
-2 -10 18 3 14 2 28 -4 31 -5 3 -10 1 -10 -5 0 -6 -23 14 -52 45 -52 57 -52
57 -100 53 -74 -8 -138 -80 -184 -206 -15 -42 -21 -54 -18 -32 7 49 12 75 14
75 1 0 3 8 5 19 7 35 -14 1 -34 -54 -29 -80 -25 -46 4 44 29 88 73 153 130
190 42 28 42 33 -2 14 -15 -7 -36 -23 -47 -36 -10 -13 -21 -21 -24 -18 -3 4
-14 -2 -24 -11 -11 -10 -19 -13 -18 -8 7 31 -1 38 -21 19 -22 -19 -22 -19 -11
1 54 95 147 133 238 98z m-921 -48 c0 -25 -3 -45 -7 -45 -5 0 -8 23 -8 52 0
62 13 56 15 -7z m85 10 c0 -38 -3 -45 -19 -45 -11 0 -26 -3 -35 -6 -9 -3 -16
-1 -16 5 0 6 9 11 20 11 16 0 20 7 20 33 0 19 3 37 7 40 16 16 23 4 23 -38z
m965 38 c-11 -3 -27 -10 -35 -17 -13 -10 -13 -9 -1 7 7 9 23 16 35 16 20 -1
20 -2 1 -6z m-1125 -43 c0 -16 -5 -30 -11 -30 -6 0 -8 9 -4 21 5 14 4 19 -4
15 -7 -5 -9 -1 -5 8 10 26 24 18 24 -14z m48 -12 c-3 -40 -5 -43 -35 -46 -19
-2 -33 1 -33 7 0 6 9 11 20 11 17 0 19 5 14 35 -5 31 -3 35 16 35 19 0 21 -5
18 -42z m2808 15 c4 -27 -16 -44 -44 -36 -27 7 -29 23 -3 23 11 0 23 5 27 12
4 7 3 8 -4 4 -13 -8 -17 6 -5 18 11 11 26 1 29 -21z m972 2 c-3 -3 -9 2 -12
12 -6 14 -5 15 5 6 7 -7 10 -15 7 -18z m-2651 -17 c-3 -7 -5 -2 -5 12 0 14 2
19 5 13 2 -7 2 -19 0 -25z m60 10 c-3 -8 -6 -5 -6 6 -1 11 2 17 5 13 3 -3 4
-12 1 -19z m-1132 -7 c-3 -6 -11 -11 -16 -11 -5 0 -4 6 3 14 14 16 24 13 13
-3z m1005 9 c-20 -13 -33 -13 -25 0 3 6 14 10 23 10 15 0 15 -2 2 -10z m2635
0 c3 -5 0 -7 -8 -4 -7 2 -25 -4 -38 -15 -13 -11 -18 -20 -11 -21 6 0 12 5 12
10 0 19 47 10 66 -12 19 -23 19 -23 -2 -5 -11 9 -27 17 -36 17 -29 0 -75 -68
-104 -154 -13 -40 -13 -40 -8 -6 3 19 13 58 22 85 9 28 15 55 14 61 -3 14 27
41 53 47 32 8 34 8 40 -3z m-5715 -25 c8 -22 3 -30 -44 -78 -30 -29 -63 -71
-74 -93 -24 -45 -29 -39 -8 11 8 18 11 36 8 40 -4 4 0 5 8 3 8 -1 15 3 15 10
0 29 -21 9 -53 -49 -36 -70 -34 -42 3 31 22 44 113 150 128 150 4 0 12 -11 17
-25z m2920 -65 c-14 -10 -27 -16 -30 -13 -6 6 30 33 44 33 6 0 0 -9 -14 -20z
m1680 -55 c0 -3 -4 -5 -9 -5 -14 0 -41 30 -41 45 0 9 9 5 25 -11 14 -14 25
-27 25 -29z m-46 11 c13 -20 25 -26 68 -28 l53 -3 -108 -54 c-120 -60 -120
-60 -189 1 l-33 28 35 -13 c19 -8 46 -17 60 -20 25 -6 25 -5 21 45 -3 55 5 68
50 68 17 0 32 -9 43 -24z m176 7 c0 -5 -25 -8 -55 -9 -30 0 -55 3 -55 8 0 4
25 8 55 8 30 0 55 -3 55 -7z m-4025 -13 c-3 -5 -12 -10 -20 -10 -8 0 -19 -8
-24 -17 -10 -17 -10 -17 -11 -1 0 17 25 37 48 38 7 0 10 -4 7 -10z m100 -19
c-12 -12 -113 -27 -102 -15 4 4 20 10 35 12 15 2 29 5 31 8 2 2 13 4 25 4 12
0 16 -4 11 -9z m1338 -9 c46 -8 49 -28 4 -25 -17 0 -96 5 -174 9 -124 6 -148
5 -189 -11 -52 -20 -46 -30 21 -40 61 -9 297 -55 320 -62 17 -5 18 -4 8 9 -7
8 -9 18 -5 23 4 4 -1 4 -11 -2 -20 -11 -87 -5 -87 8 0 5 24 9 54 9 46 0 54 -3
59 -21 13 -48 5 -48 -216 -2 -117 24 -240 49 -274 55 -35 6 -63 15 -63 20 0 5
8 7 18 4 68 -20 91 -18 154 14 l63 32 140 -7 c77 -4 157 -10 178 -13z m1642
-12 c3 -5 2 -10 -4 -10 -5 0 -13 5 -16 10 -3 6 -2 10 4 10 5 0 13 -4 16 -10z
m957 -5 c7 -7 -10 -137 -19 -146 -5 -4 -54 -9 -111 -11 -56 -1 -98 -2 -93 0 5
2 7 11 5 20 -3 12 11 27 43 49 27 17 68 46 92 62 41 29 71 38 83 26z m-4598
-45 c27 -26 29 -32 16 -44 -17 -15 -90 -29 -90 -17 0 5 18 11 41 14 49 6 56
12 40 31 -24 29 -69 40 -112 27 -21 -6 -39 -16 -39 -21 0 -6 -7 -10 -17 -10
-14 0 -14 2 3 21 43 48 110 48 158 -1z m1730 24 c30 -12 16 -23 -15 -12 -24 8
-33 8 -39 -2 -4 -7 -13 -9 -19 -6 -30 19 32 36 73 20z m1174 -20 c50 -33 131
-209 120 -261 -2 -10 -7 3 -11 28 -10 59 -75 187 -107 210 -21 16 -32 17 -70
8 -25 -6 -49 -17 -53 -25 -5 -8 -12 -12 -18 -9 -5 4 -9 -3 -9 -14 0 -11 -7
-27 -16 -35 -8 -9 -13 -16 -10 -16 3 0 -1 -17 -8 -37 -8 -21 -17 -47 -20 -58
-3 -11 -4 3 -2 31 4 65 56 181 88 194 28 12 85 4 116 -16z m1008 9 c3 -10 14
-34 24 -53 23 -45 34 -94 20 -85 -6 4 -11 -8 -12 -32 l-1 -38 -4 34 c-3 19
-11 40 -19 48 -17 18 -19 37 -1 27 6 -4 2 3 -10 15 -13 12 -23 30 -23 39 0 10
-7 28 -16 40 -14 21 -14 22 11 22 16 0 28 -7 31 -17z m-3786 -14 c0 -6 -4 -7
-10 -4 -5 3 -10 11 -10 16 0 6 5 7 10 4 6 -3 10 -11 10 -16z m1113 14 c-13 -2
-23 -11 -23 -19 0 -8 5 -12 10 -9 6 3 10 0 10 -8 0 -8 -7 -17 -15 -21 -12 -4
-15 3 -15 29 0 32 3 35 28 34 23 -2 24 -2 5 -6z m2799 -45 c-6 -6 -7 0 -4 19
5 21 7 23 10 9 2 -10 0 -22 -6 -28z m-26 -45 l3 -58 -8 50 c-5 28 -12 59 -16
70 -7 16 -5 18 5 8 7 -7 15 -38 16 -70z m-4303 50 c-7 -2 -21 -2 -30 0 -10 3
-4 5 12 5 17 0 24 -2 18 -5z m75 0 c-10 -2 -28 -2 -40 0 -13 2 -5 4 17 4 22 1
32 -1 23 -4z m305 -10 c-7 -2 -19 -2 -25 0 -7 3 -2 5 12 5 14 0 19 -2 13 -5z
m-178 -23 c0 -8 -7 -16 -15 -17 -22 -4 -44 13 -35 26 10 17 50 9 50 -9z m1568
-22 c-21 -17 -64 -48 -95 -69 -89 -61 -60 -12 32 55 78 56 130 68 63 14z
m3954 -25 c-2 -16 -4 -5 -4 22 0 28 2 40 4 28 2 -13 2 -35 0 -50z m-4937 14
c0 -15 -17 -39 -45 -66 l-45 -42 -57 16 c-32 9 -76 21 -98 27 -76 20 -89 24
-92 34 -2 5 61 19 139 30 196 29 198 29 198 1z m25 3 c3 -5 1 -10 -4 -10 -6 0
-11 5 -11 10 0 6 2 10 4 10 3 0 8 -4 11 -10z m616 -23 c-16 -16 -26 0 -10 19
9 11 15 12 17 4 2 -6 -1 -17 -7 -23z m1466 -29 c-3 -7 -5 -2 -5 12 0 14 2 19
5 13 2 -7 2 -19 0 -25z m-2844 16 c50 -9 47 -20 -5 -19 -24 0 -59 -4 -78 -8
l-35 -8 25 20 c27 22 36 24 93 15z m2169 -10 c12 -11 -5 -44 -23 -44 -14 0
-19 7 -19 25 0 18 5 25 18 25 10 0 21 -3 24 -6z m-833 -16 c-2 -2 -17 -14 -34
-28 l-30 -25 20 25 c24 29 38 41 44 34 2 -2 2 -5 0 -6z m-1292 -7 c15 15 93
-19 93 -40 0 -23 -36 -45 -44 -26 -3 8 3 16 12 18 10 3 7 5 -9 6 -18 1 -29 -6
-37 -21 -9 -20 -11 -20 -11 -4 -1 15 -4 16 -16 6 -12 -10 -15 -10 -15 4 0 9
-7 16 -16 16 -14 0 -44 22 -44 34 0 9 45 12 61 4 9 -4 20 -3 26 3z m4303 -1
c-19 -13 -30 -13 -30 0 0 6 10 10 23 10 18 0 19 -2 7 -10z m-50 -15 c-7 -9
-15 -13 -17 -11 -7 7 7 26 19 26 6 0 6 -6 -2 -15z m-4010 -14 c-7 -14 -6 -21
3 -24 6 -3 -4 -6 -23 -6 -19 0 -42 4 -50 9 -12 8 -9 10 11 10 15 0 32 7 39 15
18 22 33 19 20 -4z m4116 -11 c32 -11 47 -30 23 -30 -28 0 -69 34 -68 55 0 6
3 5 5 -2 3 -7 21 -17 40 -23z m144 0 c0 -5 -13 -10 -29 -10 -16 0 -36 -3 -45
-6 -9 -3 -16 -1 -16 6 0 6 5 8 10 5 6 -3 10 -1 10 4 0 6 16 11 35 11 19 0 35
-4 35 -10z m155 0 c-27 -5 -68 -8 -90 -8 l-40 1 45 7 c25 4 65 7 90 7 l45 0
-50 -7z m-3155 -4 c0 -3 -4 -8 -10 -11 -5 -3 -10 -1 -10 4 0 6 5 11 10 11 6 0
10 -2 10 -4z m620 -5 c0 -5 -20 -14 -44 -20 -24 -6 -52 -13 -62 -17 -33 -10
16 18 56 33 43 15 50 16 50 4z m1160 -11 c0 -11 -4 -20 -9 -20 -5 0 -7 9 -4
20 3 11 7 20 9 20 2 0 4 -9 4 -20z m-2050 0 c0 -5 -4 -10 -10 -10 -5 0 -10 5
-10 10 0 6 5 10 10 10 6 0 10 -4 10 -10z m-1071 -21 c-16 -10 -23 -4 -14 10 3
6 11 8 17 5 6 -4 5 -9 -3 -15z m1041 -6 c-1 -24 -2 -26 -11 -10 -5 9 -7 22 -4
27 10 17 15 11 15 -17z m2343 6 c31 -17 137 -109 137 -120 0 -19 -17 -7 -74
49 -33 31 -71 62 -85 69 -14 6 -20 12 -13 12 7 1 23 -4 35 -10z m-2326 -44
c-21 -21 -22 -21 -37 -3 -14 17 -15 16 -12 -23 3 -23 -1 -46 -8 -52 -9 -9 -11
-8 -9 3 1 8 -3 28 -9 43 -15 35 -16 58 -2 37 8 -13 10 -13 10 2 0 25 20 32 34
13 10 -14 17 -16 32 -7 11 7 13 12 6 12 -7 0 -10 5 -6 11 4 8 9 7 15 -2 5 -8
0 -21 -14 -34z m-1032 25 c3 -5 1 -10 -4 -10 -6 0 -11 5 -11 10 0 6 2 10 4 10
3 0 8 -4 11 -10z m1363 -8 c3 -9 -2 -13 -14 -10 -9 1 -19 9 -22 16 -3 9 2 13
14 10 9 -1 19 -9 22 -16z m238 6 c5 -8 2 -9 -11 -4 -11 4 -22 2 -26 -6 -4 -7
-11 -9 -16 -5 -8 9 15 27 34 27 6 0 15 -5 19 -12z m2474 2 c0 -5 -5 -10 -11
-10 -5 0 -7 5 -4 10 3 6 8 10 11 10 2 0 4 -4 4 -10z m310 0 c25 -15 7 -17 -40
-4 l-45 12 35 1 c19 0 42 -3 50 -9z m-2990 -10 c0 -5 -2 -10 -4 -10 -3 0 -8 5
-11 10 -3 6 -1 10 4 10 6 0 11 -4 11 -10z m1307 -22 c-3 -8 -6 -5 -6 6 -1 11
2 17 5 13 3 -3 4 -12 1 -19z m1272 1 c1 8 3 12 6 10 6 -7 -17 -69 -26 -69 -5
0 -5 65 1 80 1 3 5 -4 10 -15 5 -12 9 -14 9 -6z m71 17 c0 -3 -5 -17 -10 -32
-8 -21 -7 -29 6 -39 12 -8 14 -14 5 -19 -6 -4 -14 0 -18 10 -10 26 -74 -164
-66 -196 3 -14 5 -29 4 -33 -1 -5 3 -6 8 -3 5 3 14 0 20 -8 9 -10 7 -17 -6
-27 -9 -8 -14 -9 -10 -2 5 8 1 8 -18 0 -16 -8 -23 -18 -19 -29 4 -12 0 -15
-16 -11 -11 3 -22 8 -25 12 -5 9 -105 4 -136 -7 -47 -16 -138 3 -115 25 5 4
11 2 13 -4 6 -16 34 -17 31 -1 -5 19 88 33 131 19 42 -14 101 -11 118 5 11 10
9 56 -2 74 -5 8 18 86 28 96 4 4 7 14 7 22 0 8 12 37 26 65 14 28 23 59 21 69
-3 11 0 18 9 18 8 0 14 -2 14 -4z m-1003 -58 c-2 -13 -4 -5 -4 17 -1 22 1 32
4 23 2 -10 2 -28 0 -40z m60 30 c-3 -8 -6 -5 -6 6 -1 11 2 17 5 13 3 -3 4 -12
1 -19z m581 15 c-10 -2 -26 -2 -35 0 -10 3 -2 5 17 5 19 0 27 -2 18 -5z
m-2188 -13 c0 -5 -2 -10 -4 -10 -3 0 -8 5 -11 10 -3 6 -1 10 4 10 6 0 11 -4
11 -10z m3103 -21 c5 -18 2 -20 -16 -15 -12 3 -28 6 -34 6 -7 0 -13 4 -13 10
0 6 9 6 26 0 22 -9 25 -8 20 5 -3 8 -2 15 3 15 5 0 11 -9 14 -21z m-2888 -10
c33 -7 30 -8 -20 -3 -33 2 -74 9 -90 14 -24 7 -20 8 20 3 28 -3 68 -9 90 -14z
m2659 12 c-17 -4 -36 -11 -42 -15 -8 -5 -10 -2 -6 8 4 11 18 16 43 15 l36 -1
-31 -7z m96 -19 c0 -4 -5 -13 -12 -20 -20 -20 -5 -22 57 -8 51 12 65 12 106
-1 40 -13 48 -20 51 -44 6 -40 -20 -39 -35 1 -14 38 -26 38 -40 0 -9 -24 -15
-28 -34 -24 -30 8 -151 -16 -156 -30 -2 -6 -2 -32 1 -58 l4 -48 44 0 c24 0 44
3 44 8 0 4 19 7 43 5 23 -1 34 0 25 3 -10 3 -18 10 -18 16 0 5 6 8 13 5 6 -2
20 0 29 4 11 6 19 5 24 -3 5 -7 2 -9 -7 -4 -8 4 -5 0 5 -8 16 -13 17 -16 4
-16 -9 0 -18 -6 -21 -14 -4 -10 -25 -14 -80 -12 -57 1 -73 -2 -66 -11 7 -8 4
-15 -10 -22 -26 -14 -84 -14 -76 -1 14 23 -55 70 -102 70 -16 0 -23 6 -23 20
0 16 4 18 23 12 12 -4 33 -7 47 -7 20 0 25 5 25 25 0 18 6 26 23 28 12 2 20 8
17 13 -4 5 3 9 13 9 11 0 25 7 32 15 11 13 8 15 -21 16 -19 1 -37 1 -41 0 -5
0 -8 6 -8 14 0 17 -16 20 -25 5 -4 -6 -11 -7 -17 -4 -6 4 4 13 22 20 39 17 43
17 35 4 -10 -17 2 -11 16 8 7 9 10 14 5 10 -8 -7 -36 14 -36 26 0 3 27 6 60 6
33 0 60 -4 60 -8z m-340 -7 c0 -2 -10 -10 -22 -16 -21 -11 -22 -11 -9 4 13 16
31 23 31 12z m-1423 -57 c-2 -13 -4 -5 -4 17 -1 22 1 32 4 23 2 -10 2 -28 0
-40z m2948 15 c-4 -21 -12 -47 -18 -58 -6 -11 -11 -24 -12 -28 0 -14 -38 -37
-60 -37 -12 0 -30 10 -41 22 l-19 22 25 -17 c30 -21 41 -21 66 -1 18 14 18 15
-4 4 -26 -13 -57 -6 -47 10 4 6 1 9 -6 8 -7 -2 -18 8 -25 22 -11 21 -11 27 4
43 17 19 17 19 20 1 7 -44 11 -48 30 -30 22 19 53 23 34 4 -7 -7 -12 -16 -12
-22 0 -16 42 37 52 67 14 39 21 33 13 -10z m-4556 18 c10 -6 1 -12 -30 -19
-24 -5 -53 -13 -64 -17 -16 -7 -18 -6 -8 6 7 7 28 18 45 25 43 15 41 15 57 5z
m1941 -155 c-17 -109 -76 -206 -126 -206 -12 0 -24 -5 -26 -12 -5 -14 -9 -11
-73 48 -27 24 -29 28 -7 10 41 -32 50 -32 54 -3 2 17 8 21 30 19 15 -2 36 2
47 8 33 17 16 -11 -22 -37 -17 -13 -27 -23 -20 -23 20 0 72 50 98 94 24 42 43
131 47 221 l2 50 3 -49 c2 -26 -1 -80 -7 -120z m-1880 144 c20 -12 9 -21 -18
-13 -12 3 -19 9 -16 14 7 11 15 11 34 -1z m2947 -35 c-4 -8 -11 -15 -17 -15
-7 0 -7 6 0 21 13 23 26 19 17 -6z m523 -5 c0 -5 -7 -7 -15 -4 -8 4 -12 10 -9
15 6 11 24 2 24 -11z m-5546 1 c4 -5 -3 -7 -14 -4 -23 6 -26 13 -6 13 8 0 17
-4 20 -9z m1736 -68 c0 -13 -4 -23 -10 -23 -5 0 -10 -10 -10 -21 0 -17 -3 -19
-14 -10 -12 10 -14 8 -10 -11 2 -13 -4 0 -15 27 -24 61 -27 87 -7 60 13 -18
14 -18 9 8 -3 16 -1 27 5 27 6 0 13 -21 15 -47 3 -47 3 -46 6 12 3 59 3 60 16
30 8 -16 14 -40 15 -52z m3115 66 c-36 -11 -259 -39 -295 -38 -14 1 36 9 111
19 75 10 145 20 155 23 35 9 60 6 29 -4z m-4702 -6 c3 -5 0 -19 -5 -33 -9 -23
-10 -24 -19 -7 -16 28 8 67 24 40z m1730 -23 c-14 -16 -28 -30 -30 -30 -3 0 5
14 17 30 12 17 26 30 31 30 5 0 -3 -13 -18 -30z m-1789 6 c-21 -15 -30 -14
-19 3 3 6 14 11 23 11 13 0 13 -2 -4 -14z m6295 -40 c-1 -18 -2 -17 -6 3 -4
19 -7 21 -14 10 -6 -10 -9 -5 -9 16 1 29 1 29 15 11 8 -11 14 -29 14 -40z
m-6089 35 c0 -5 -7 -14 -15 -21 -12 -10 -15 -10 -15 2 0 8 3 18 7 21 9 10 23
9 23 -2z m-263 -17 c-3 -3 -12 -4 -19 -1 -8 3 -5 6 6 6 11 1 17 -2 13 -5z
m769 -2 c19 -12 51 -177 32 -166 -4 3 -8 -9 -8 -27 l0 -31 -116 4 c-85 3 -118
8 -124 18 -5 9 -5 17 1 21 6 3 -1 9 -15 11 -15 3 -29 1 -32 -3 -3 -5 -16 -7
-29 -5 -14 3 -27 1 -29 -2 -2 -4 16 -8 40 -8 43 -1 63 -8 52 -19 -2 -3 -77 -5
-166 -6 -114 0 -162 -4 -166 -12 -2 -7 -5 -4 -5 6 -1 11 8 30 19 44 22 29 26
73 8 91 -20 20 0 26 22 7 17 -16 31 -17 102 -11 96 8 276 47 345 76 56 22 55
22 69 12z m3712 1 c-10 -2 -26 -2 -35 0 -10 3 -2 5 17 5 19 0 27 -2 18 -5z
m1015 -20 c-5 -12 -7 -12 -14 -1 -13 20 -11 28 5 22 8 -3 12 -12 9 -21z m73
-31 c-3 -2 -13 -1 -23 3 -12 5 -14 9 -5 12 6 3 12 12 13 21 0 11 3 9 10 -7 5
-13 7 -26 5 -29z m-5354 13 c-2 -14 -8 -28 -13 -31 -10 -6 -12 39 -2 49 13 14
20 6 15 -18z m1823 -33 c-7 -8 -23 42 -17 53 3 5 9 -4 14 -20 4 -16 5 -31 3
-33z m1214 42 c2 -2 -11 -5 -30 -5 -19 -1 -43 -3 -54 -5 -11 -1 -56 -7 -100
-13 -96 -12 -250 -37 -287 -46 -18 -5 -28 -3 -28 4 0 15 3 16 140 36 63 10
123 21 132 26 9 5 19 5 22 0 5 -8 103 3 113 13 5 4 85 -4 92 -10z m1481 6 c0
-5 -4 -10 -10 -10 -5 0 -10 5 -10 10 0 6 5 10 10 10 6 0 10 -4 10 -10z m-2744
-34 c-8 -19 -11 -38 -8 -42 4 -4 1 -4 -6 0 -7 4 -10 11 -7 15 2 5 9 20 14 35
6 14 13 26 16 26 3 0 -1 -15 -9 -34z m2771 19 c0 -8 -4 -12 -9 -9 -5 3 -6 10
-3 15 9 13 12 11 12 -6z m-3891 -4 c-4 -5 0 -11 6 -14 7 -2 9 -8 5 -13 -9 -10
-28 16 -21 28 3 4 7 8 10 8 3 0 3 -4 0 -9z m1439 -6 l30 -13 -41 -1 c-23 -1
-56 -4 -73 -7 -31 -6 -31 -7 -31 -70 0 -68 -11 -85 -40 -59 -14 12 -20 13 -26
4 -4 -8 -3 -10 4 -5 7 4 12 2 12 -4 0 -8 -9 -10 -24 -6 -14 3 -28 2 -31 -4 -4
-6 13 -10 44 -10 44 0 51 -3 51 -20 0 -18 -7 -20 -68 -20 -91 0 -222 11 -222
19 0 4 25 17 56 30 31 14 94 52 141 85 151 108 156 110 218 81z m2405 -5 c0
-5 -5 -10 -11 -10 -5 0 -7 5 -4 10 3 6 8 10 11 10 2 0 4 -4 4 -10z m75 0 c3
-5 1 -10 -4 -10 -6 0 -11 5 -11 10 0 6 2 10 4 10 3 0 8 -4 11 -10z m-2270 -10
c3 -5 2 -10 -4 -10 -5 0 -13 5 -16 10 -3 6 -2 10 4 10 5 0 13 -4 16 -10z
m1055 6 c0 -3 -4 -8 -10 -11 -5 -3 -10 -1 -10 4 0 6 5 11 10 11 6 0 10 -2 10
-4z m156 -12 c-3 -8 -2 -23 3 -32 4 -9 11 -30 15 -47 6 -28 5 -28 -14 8 -11
20 -25 37 -29 37 -5 0 -17 3 -26 7 -14 5 -16 2 -11 -13 3 -10 2 -32 -3 -49 -7
-27 -9 -24 -12 27 l-4 58 33 -6 c25 -5 32 -3 32 10 0 9 5 16 11 16 6 0 8 -7 5
-16z m681 -6 c-3 -8 -6 -5 -6 6 -1 11 2 17 5 13 3 -3 4 -12 1 -19z m563 18 c0
-2 -9 -6 -20 -9 -11 -3 -20 -1 -20 4 0 5 9 9 20 9 11 0 20 -2 20 -4z m-520
-16 c0 -5 -4 -10 -10 -10 -5 0 -10 5 -10 10 0 6 5 10 10 10 6 0 10 -4 10 -10z
m310 6 c0 -2 -7 -6 -15 -10 -8 -3 -15 -1 -15 4 0 6 7 10 15 10 8 0 15 -2 15
-4z m-4582 -112 c3 -47 1 -64 -8 -64 -7 0 -10 7 -7 15 4 8 2 17 -3 20 -5 3 -9
25 -8 48 0 23 -3 53 -7 67 l-7 25 17 -23 c10 -14 20 -50 23 -88z m1598 81 c-9
-14 -21 -62 -27 -108 -5 -45 -11 -93 -14 -107 -15 -82 -14 -84 68 -103 99 -23
237 -33 237 -18 0 6 -5 11 -11 11 -6 0 -9 8 -7 17 2 9 6 15 10 12 4 -2 13 5
21 15 18 25 32 4 16 -25 -9 -17 -8 -20 2 -14 9 6 11 3 6 -8 -5 -13 3 -17 46
-20 29 -2 -7 -4 -79 -5 -81 -1 -165 4 -218 13 -47 8 -104 16 -126 17 -48 2
-54 18 -7 18 20 0 27 3 19 9 -10 6 -11 24 -3 86 5 44 7 83 5 87 -9 13 17 80
43 116 28 38 43 43 19 7z m2854 17 c0 -4 -9 -8 -20 -8 -11 0 -20 4 -20 8 0 4
9 8 20 8 11 0 20 -4 20 -8z m60 -12 c0 -5 -4 -10 -10 -10 -5 0 -10 5 -10 10 0
6 5 10 10 10 6 0 10 -4 10 -10z m1712 -26 c-8 -14 -9 -13 -9 10 0 18 3 24 9
18 7 -7 7 -16 0 -28z m-4791 6 c5 0 9 -6 9 -13 0 -7 -23 -21 -50 -31 -28 -10
-59 -30 -71 -45 -11 -14 -33 -29 -47 -32 -20 -5 -14 -7 23 -8 28 -1 57 -6 65
-12 11 -7 2 -8 -30 -4 -71 9 -132 9 -170 2 -29 -6 -25 -3 25 23 33 18 67 37
75 45 32 28 136 84 148 80 8 -3 18 -5 23 -5z m2813 -5 c3 -8 1 -15 -4 -15 -6
0 -10 7 -10 15 0 8 2 15 4 15 2 0 6 -7 10 -15z m-4424 -50 c0 -30 -4 -55 -10
-55 -11 0 -13 52 -4 88 10 36 14 26 14 -33z m1963 40 c-3 -9 -8 -14 -10 -11
-3 3 -2 9 2 15 9 16 15 13 8 -4z m1104 -67 c-2 -35 -2 -53 0 -40 2 12 8 22 13
22 5 0 6 7 3 17 -4 11 -3 14 5 9 15 -9 16 -46 2 -46 -5 0 -10 -7 -10 -16 0 -9
5 -12 11 -8 7 4 10 2 7 -6 -2 -7 -18 -14 -36 -16 -31 -4 -32 -3 -32 35 0 22 5
43 10 46 6 3 10 19 10 36 0 16 5 29 11 29 7 0 9 -22 6 -62z m-330 -1 c1 -47 1
-47 -31 -47 -20 0 -40 -8 -51 -20 -13 -15 -29 -20 -57 -18 -21 2 -38 6 -38 10
0 12 39 30 50 23 6 -3 10 -1 10 5 0 17 83 97 100 96 11 -1 15 -15 17 -49z
m-777 33 c0 -5 -4 -10 -10 -10 -5 0 -10 5 -10 10 0 6 5 10 10 10 6 0 10 -4 10
-10z m-340 -14 c0 -2 -7 -9 -15 -16 -13 -11 -14 -10 -9 4 5 14 24 23 24 12z
m1195 -72 c6 -40 4 -53 -10 -64 -15 -12 -19 -12 -31 5 -18 24 -18 39 1 55 8 7
15 29 15 49 1 49 17 21 25 -45z m45 54 c0 -19 -2 -20 -10 -8 -15 24 -12 -5 5
-36 15 -29 19 -26 16 9 -1 9 3 17 8 17 6 0 12 -17 13 -37 l1 -38 4 38 c3 29 9
37 24 37 11 0 19 7 19 17 0 9 3 13 7 10 3 -4 5 -27 5 -51 -2 -40 0 -44 18 -39
15 4 20 14 20 38 0 20 6 35 15 39 9 3 15 0 15 -10 0 -8 -4 -12 -10 -9 -6 4
-10 -7 -9 -27 1 -31 1 -32 9 -8 8 24 8 24 9 -6 1 -30 -1 -32 -38 -32 -39 -1
-40 0 -44 36 -4 36 -4 36 -7 -8 l-3 -45 -7 40 -7 40 -2 -37 c-1 -32 -5 -38
-22 -38 -16 0 -20 5 -15 18 4 11 0 9 -10 -5 -9 -13 -20 -23 -25 -23 -5 0 -9
10 -9 23 0 18 2 19 10 7 14 -22 13 5 -2 46 -12 33 -6 64 12 64 5 0 10 -10 10
-22z m290 1 c0 -5 -4 -9 -10 -9 -14 0 -13 -43 2 -58 9 -9 8 -12 -7 -12 -16 0
-20 8 -22 43 -3 36 0 43 17 44 11 1 20 -2 20 -8z m1280 0 c19 1 44 4 55 7 16
4 17 3 5 -5 -8 -6 -25 -11 -37 -11 -12 0 -23 -5 -25 -10 -4 -13 -98 -1 -98 12
0 6 7 8 15 5 8 -4 17 -2 20 4 4 5 12 6 18 2 6 -4 28 -6 47 -4z m349 -3 c-2 -2
-22 -5 -44 -7 -22 -1 -44 -6 -50 -9 -20 -14 -56 -19 -53 -8 2 6 12 12 22 14
10 1 20 5 24 8 3 3 28 6 55 6 28 0 48 -2 46 -4z m181 -5 c-8 -5 -37 -12 -64
-16 -27 -3 -55 -9 -62 -12 -8 -3 -14 -1 -14 5 0 10 79 29 130 31 19 0 21 -2
10 -8z m-1980 -31 c0 -16 -4 -30 -8 -30 -5 0 -8 10 -6 23 1 12 3 25 3 30 3 21
11 3 11 -23z m1638 12 c2 -7 -1 -12 -8 -12 -6 0 -9 4 -6 9 4 5 1 12 -4 14 -6
3 -5 4 2 3 6 -1 14 -8 16 -14z m-673 -1 c3 -5 1 -12 -5 -16 -5 -3 -10 1 -10 9
0 18 6 21 15 7z m-2418 -7 c-3 -3 -12 -4 -19 -1 -8 3 -5 6 6 6 11 1 17 -2 13
-5z m813 -18 c0 -15 -24 -28 -34 -19 -7 7 13 33 25 33 5 0 9 -6 9 -14z m1996
-13 c-4 -13 -16 -18 -46 -18 -22 -1 -40 3 -40 7 0 4 18 8 40 8 31 0 40 4 40
17 0 9 3 14 6 10 3 -3 3 -14 0 -24z m-2431 -3 c28 -6 14 -6 -45 -3 -47 3 -87
7 -89 9 -8 7 94 3 134 -6z m2715 6 c0 -2 -9 -6 -20 -9 -11 -3 -20 -1 -20 4 0
5 9 9 20 9 11 0 20 -2 20 -4z m-4507 -32 c21 -14 36 -28 33 -31 -3 -3 -26 9
-52 26 -26 17 -41 31 -33 31 8 0 32 -12 52 -26z m1474 20 c-3 -3 -12 -4 -19
-1 -8 3 -5 6 6 6 11 1 17 -2 13 -5z m20 -71 c-2 -16 -4 -3 -4 27 0 30 2 43 4
28 2 -16 2 -40 0 -55z m1118 67 c3 -5 -3 -10 -14 -10 -12 0 -21 5 -21 10 0 6
6 10 14 10 8 0 18 -4 21 -10z m1812 -7 c-20 -2 -52 -2 -70 0 -17 2 0 4 38 4
39 0 53 -2 32 -4z m-4210 -17 c-15 -7 -24 -15 -21 -19 4 -4 -9 -7 -29 -7 -23
0 -37 5 -38 13 0 10 -2 10 -6 0 -2 -7 -12 -13 -21 -13 -12 0 -13 3 -4 12 12
12 75 25 122 26 l25 0 -28 -12z m111 2 c15 -1 37 2 50 6 12 4 22 4 22 -1 0 -4
30 -9 68 -10 117 -4 152 -12 152 -33 0 -12 -8 -20 -22 -22 -32 -5 -69 3 -63
12 7 11 -39 21 -85 19 -43 -1 -109 0 -172 3 -46 1 -47 2 -31 20 10 11 24 16
35 12 10 -3 30 -6 46 -6z m1655 5 c-18 -2 -48 -2 -65 0 -18 2 -4 4 32 4 36 0
50 -2 33 -4z m-2140 -21 c15 -13 24 -42 13 -42 -3 0 -19 13 -36 28 -24 23 -27
29 -13 29 10 0 26 -7 36 -15z m871 10 c6 -11 -30 -52 -45 -52 -6 0 -9 8 -7 18
2 9 12 16 22 15 11 0 15 4 12 13 -6 15 9 20 18 6z m1136 -6 c-19 -6 -42 -15
-50 -20 -9 -6 -7 -1 4 12 12 14 30 22 50 21 l31 -1 -35 -12z m2287 -2 c-3 -3
-12 -4 -19 -1 -8 3 -5 6 6 6 11 1 17 -2 13 -5z m-2262 -14 c-3 -5 3 -10 14
-10 11 0 22 -4 26 -10 8 -13 -63 -32 -105 -28 l-35 4 27 13 c15 8 25 18 22 22
-3 5 0 9 5 9 6 0 11 -5 11 -12 0 -8 6 -6 17 5 19 19 27 22 18 7z m-2160 -10
c8 -13 -5 -13 -25 0 -13 8 -13 10 2 10 9 0 20 -4 23 -10z m265 -20 c25 -20 25
-20 3 -20 -13 0 -23 4 -23 9 0 5 -9 13 -20 16 -11 3 -20 10 -20 15 0 12 31 2
60 -20z m106 12 c1 -7 0 -8 -3 -2 -2 5 -9 8 -13 5 -5 -3 -12 0 -15 6 -5 7 -1
10 10 7 10 -1 20 -9 21 -16z m762 -15 c2 -11 -3 -15 -17 -14 -12 1 -21 2 -21
3 0 32 32 41 38 11z m1195 11 c24 -12 21 -23 -8 -24 -14 -1 -22 2 -19 8 3 5
-3 4 -15 -4 -18 -11 -24 -10 -42 8 l-21 21 44 0 c23 1 51 -4 61 -9z m-263 -1
c0 -2 -10 -12 -22 -23 l-23 -19 19 23 c18 21 26 27 26 19z m447 -10 c3 -5 0
-14 -6 -20 -6 -6 -11 -7 -11 -1 0 5 -18 8 -40 6 -37 -4 -50 5 -33 21 9 10 83
5 90 -6z m298 3 c3 -5 1 -10 -4 -10 -6 0 -11 5 -11 10 0 6 2 10 4 10 3 0 8 -4
11 -10z m-2595 -10 c0 -5 -5 -10 -11 -10 -5 0 -7 5 -4 10 3 6 8 10 11 10 2 0
4 -4 4 -10z m485 0 c-3 -5 -11 -10 -16 -10 -6 0 -7 5 -4 10 3 6 11 10 16 10 6
0 7 -4 4 -10z m2047 -8 c9 -9 -6 -12 -65 -12 -63 0 -77 3 -77 15 0 13 12 15
65 12 36 -2 71 -9 77 -15z m-1763 -3 c-8 -5 27 -10 86 -12 55 -1 -8 -5 -140
-7 -132 -2 -259 -5 -282 -6 -24 -1 -43 2 -43 6 0 4 21 7 48 7 45 0 245 14 249
17 1 0 23 2 48 2 29 1 42 -2 34 -7z m1893 -7 c21 -21 3 -22 -27 -1 -27 17 -27
19 -7 16 12 -2 28 -9 34 -15z m-1217 -3 c-5 -8 -296 0 -305 8 -2 2 66 3 152 2
87 -1 155 -6 153 -10z m125 0 c0 -11 -47 -12 -54 -1 -3 5 8 9 24 10 17 0 30
-4 30 -9z m-1283 -15 c51 1 93 -3 93 -7 0 -4 -61 -7 -135 -6 -74 1 -135 5
-135 9 0 14 12 17 48 11 20 -4 79 -7 129 -7z m3570 -2 c0 -10 -7 -19 -13 -19
-9 0 -10 5 -3 19 5 10 12 18 14 18 2 0 3 -8 2 -18z m-4267 -2 c0 -5 -12 -10
-26 -10 -14 0 -23 4 -19 10 3 6 15 10 26 10 10 0 19 -4 19 -10z m510 2 c0 -4
-19 -6 -42 -4 -71 5 -77 10 -15 11 31 0 57 -2 57 -7z m2460 -7 c21 -25 1 -31
-22 -7 -18 18 -19 22 -6 22 8 0 21 -7 28 -15z m687 -31 c2 -7 -26 -16 -74 -23
-43 -7 -118 -18 -168 -26 -49 -8 -104 -14 -120 -13 -17 0 -40 -2 -53 -6 -13
-4 -22 -3 -22 3 0 15 -59 43 -76 37 -8 -3 -13 -2 -10 3 3 4 58 9 123 9 65 1
156 8 203 16 96 16 192 16 197 0z m-1072 -4 c3 -5 -1 -10 -9 -10 -9 0 -16 5
-16 10 0 6 4 10 9 10 6 0 13 -4 16 -10z m110 -10 c-7 -12 -42 -12 -70 0 -15 6
-8 9 28 9 30 1 46 -3 42 -9z"/>
<path d="M7270 2545 c0 -8 7 -15 15 -15 8 0 15 7 15 15 0 8 -7 15 -15 15 -8 0
-15 -7 -15 -15z"/>
<path d="M7195 2527 c-8 -32 0 -46 17 -29 8 8 8 18 1 34 l-11 23 -7 -28z"/>
<path d="M7196 2461 c-4 -5 -2 -12 3 -15 5 -4 12 -2 15 3 4 5 2 12 -3 15 -5 4
-12 2 -15 -3z"/>
<path d="M7950 2130 c0 -11 7 -20 15 -20 13 0 14 4 5 20 -6 11 -13 20 -15 20
-3 0 -5 -9 -5 -20z"/>
<path d="M7890 2090 c0 -5 5 -10 11 -10 5 0 7 5 4 10 -3 6 -8 10 -11 10 -2 0
-4 -4 -4 -10z"/>
<path d="M5328 2073 c23 -2 61 -2 85 0 23 2 4 4 -43 4 -47 0 -66 -2 -42 -4z"/>
<path d="M7793 1925 c-3 -9 -3 -18 -1 -21 3 -3 8 4 11 16 6 23 -1 27 -10 5z"/>
<path d="M7782 1865 c0 -16 2 -22 5 -12 2 9 2 23 0 30 -3 6 -5 -1 -5 -18z"/>
<path d="M4407 1983 c-11 -10 -8 -53 3 -53 6 0 10 14 10 30 0 31 -2 35 -13 23z"/>
<path d="M4095 1949 c-4 -12 -3 -25 2 -30 6 -6 10 2 10 21 0 35 -3 38 -12 9z"/>
<path d="M5195 1970 c3 -5 14 -10 23 -10 15 0 15 2 2 10 -20 13 -33 13 -25 0z"/>
<path d="M5320 1859 c7 -11 14 -19 16 -16 7 7 -7 37 -17 37 -6 0 -5 -9 1 -21z"/>
<path d="M4362 1950 c0 -19 2 -27 5 -17 2 9 2 25 0 35 -3 9 -5 1 -5 -18z"/>
<path d="M4247 1963 c-2 -5 0 -21 4 -38 7 -29 7 -29 8 8 1 35 -3 46 -12 30z"/>
<path d="M5206 1722 c-3 -5 8 -6 25 -4 16 2 29 6 29 8 0 8 -49 4 -54 -4z"/>
<path d="M1807 1080 c-14 -17 -15 -20 -2 -20 9 0 18 7 22 15 9 24 -1 27 -20 5z"/>
<path d="M2090 1080 c0 -5 7 -10 16 -10 8 0 12 5 9 10 -3 6 -10 10 -16 10 -5
0 -9 -4 -9 -10z"/>
<path d="M2160 1080 c-8 -5 5 -7 30 -4 24 2 45 6 47 8 8 8 -64 4 -77 -4z"/>
<path d="M1875 1070 c3 -5 8 -10 11 -10 2 0 4 5 4 10 0 6 -5 10 -11 10 -5 0
-7 -4 -4 -10z"/>
<path d="M1910 1070 c-9 -6 -10 -10 -3 -10 6 0 15 5 18 10 8 12 4 12 -15 0z"/>
<path d="M4542 1015 c0 -16 2 -22 5 -12 2 9 2 23 0 30 -3 6 -5 -1 -5 -18z"/>
<path d="M1965 940 c-19 -8 -19 -9 3 -9 12 -1 22 4 22 9 0 6 -1 10 -2 9 -2 0
-12 -4 -23 -9z"/>
<path d="M4348 783 c6 -2 18 -2 25 0 6 3 1 5 -13 5 -14 0 -19 -2 -12 -5z"/>
<path d="M5351 2670 c0 -8 4 -24 8 -35 5 -11 3 -27 -2 -37 -8 -12 -7 -21 2
-31 20 -25 30 -74 18 -87 -9 -10 -8 -11 3 -8 10 3 14 16 13 39 -3 60 -21 151
-32 162 -8 8 -11 7 -10 -3z"/>
<path d="M4590 2662 c0 -4 17 -6 38 -4 64 6 69 10 15 11 -29 0 -53 -3 -53 -7z"/>
<path d="M4540 2645 c-14 -8 -20 -14 -15 -14 6 0 21 6 35 14 14 8 21 14 15 14
-5 0 -21 -6 -35 -14z"/>
<path d="M4720 2650 c8 -5 22 -9 30 -9 10 0 8 3 -5 9 -27 12 -43 12 -25 0z"/>
<path d="M4484 2614 c-18 -14 -18 -15 4 -4 12 6 22 13 22 15 0 8 -5 6 -26 -11z"/>
<path d="M4518 2610 c-44 -24 -98 -87 -98 -116 0 -12 -7 -27 -15 -34 -8 -7
-13 -16 -10 -20 3 -4 -5 -20 -16 -34 -27 -34 -23 -38 21 -19 26 12 30 17 18
20 -29 7 -21 23 11 23 24 0 28 -4 24 -19 -4 -16 0 -18 23 -13 25 5 26 6 9 12
-18 7 -18 8 5 13 14 3 41 8 62 12 20 3 39 12 42 20 7 19 -1 19 -20 0 -11 -11
-37 -15 -91 -15 -95 0 -89 11 9 17 40 3 75 7 78 10 3 3 -28 3 -68 1 -72 -4
-73 -4 -50 15 33 26 101 57 151 66 41 9 41 9 -20 10 -35 1 -63 4 -63 7 0 3 9
19 21 35 11 16 19 29 17 29 -2 -1 -19 -10 -40 -20z"/>
<path d="M4434 2585 c-18 -14 -18 -14 4 -8 12 3 22 9 22 14 0 12 -3 11 -26 -6z"/>
<path d="M4607 2516 c-4 -10 -5 -21 -2 -24 9 -9 17 6 13 25 -3 17 -4 17 -11
-1z"/>
<path d="M5181 2501 c-9 -6 -11 -16 -6 -32 13 -41 29 -59 45 -48 13 7 12 9 -2
9 -21 0 -38 52 -20 58 13 4 16 22 5 22 -5 0 -14 -4 -22 -9z"/>
<path d="M4665 2490 c3 -5 8 -10 11 -10 2 0 4 5 4 10 0 6 -5 10 -11 10 -5 0
-7 -4 -4 -10z"/>
<path d="M4690 2489 c0 -5 5 -7 10 -4 6 3 10 8 10 11 0 2 -4 4 -10 4 -5 0 -10
-5 -10 -11z"/>
<path d="M4844 2489 c-4 -7 -1 -10 7 -7 8 3 19 -2 26 -11 10 -14 11 -13 6 7
-6 23 -27 30 -39 11z"/>
<path d="M4372 2462 c-11 -25 -11 -25 4 -10 9 9 15 21 13 27 -2 6 -10 -2 -17
-17z"/>
<path d="M4720 2476 c0 -2 8 -10 18 -17 15 -13 16 -12 3 4 -13 16 -21 21 -21
13z"/>
<path d="M4920 2474 c0 -4 5 -24 12 -45 9 -32 16 -39 36 -39 28 0 25 15 -11
60 -21 27 -37 37 -37 24z"/>
<path d="M4860 2443 c0 -4 5 -15 10 -23 8 -13 10 -13 10 2 0 9 -4 20 -10 23
-5 3 -10 3 -10 -2z"/>
<path d="M3437 2413 c-4 -3 -7 -25 -7 -48 0 -41 1 -43 38 -49 20 -3 62 -6 92
-6 99 0 100 -2 100 -86 0 -43 4 -74 10 -74 6 0 10 9 10 20 0 11 7 20 15 20 8
0 15 4 15 9 0 12 41 21 112 22 31 1 63 6 70 11 8 5 -8 7 -42 3 -30 -3 -78 -6
-106 -8 -36 -1 -50 -6 -47 -14 3 -7 1 -13 -5 -13 -5 0 -9 10 -8 23 1 12 -3 33
-8 46 -8 19 -7 26 8 37 11 8 20 30 23 58 l5 45 -83 -3 c-46 -1 -100 -8 -120
-16 -42 -15 -72 -8 -63 15 6 16 2 20 -9 8z"/>
<path d="M4534 2412 c2 -4 21 -9 42 -10 20 -2 41 -5 45 -7 9 -6 39 5 39 14 0
4 -30 8 -66 9 -36 1 -63 -2 -60 -6z"/>
<path d="M4700 2401 c0 -12 9 -20 25 -23 14 -3 25 -1 25 3 0 5 -8 9 -17 9 -16
1 -16 2 1 15 19 14 19 15 -7 15 -20 0 -27 -5 -27 -19z"/>
<path d="M5000 2410 c0 -5 7 -10 15 -10 8 0 15 5 15 10 0 6 -7 10 -15 10 -8 0
-15 -4 -15 -10z"/>
<path d="M5065 2410 c3 -5 11 -10 16 -10 6 0 7 5 4 10 -3 6 -11 10 -16 10 -6
0 -7 -4 -4 -10z"/>
<path d="M4138 2353 c7 -3 16 -2 19 1 4 3 -2 6 -13 5 -11 0 -14 -3 -6 -6z"/>
<path d="M4069 2323 c-13 -16 -12 -17 4 -4 9 7 17 15 17 17 0 8 -8 3 -21 -13z"/>
<path d="M5358 2313 c7 -3 16 -2 19 1 4 3 -2 6 -13 5 -11 0 -14 -3 -6 -6z"/>
<path d="M3445 2295 c-5 -2 -22 -6 -37 -9 -16 -4 -28 -12 -28 -18 0 -9 3 -9
12 0 7 7 21 12 33 12 11 0 27 5 35 10 14 9 6 12 -15 5z"/>
<path d="M5440 2286 c0 -8 52 -38 73 -41 11 -3 25 -9 31 -15 12 -12 29 -13 22
-1 -5 8 -110 61 -121 61 -3 0 -5 -2 -5 -4z"/>
<path d="M7758 2263 c6 -2 18 -2 25 0 6 3 1 5 -13 5 -14 0 -19 -2 -12 -5z"/>
<path d="M7818 2253 c7 -3 16 -2 19 1 4 3 -2 6 -13 5 -11 0 -14 -3 -6 -6z"/>
<path d="M4010 2240 c-9 -6 -10 -10 -3 -10 6 0 15 5 18 10 8 12 4 12 -15 0z"/>
<path d="M3600 2185 c0 -8 5 -15 10 -15 6 0 10 7 10 15 0 8 -4 15 -10 15 -5 0
-10 -7 -10 -15z"/>
<path d="M5790 2177 c14 -6 28 -15 31 -19 3 -5 30 -11 60 -14 30 -3 69 -13 87
-21 19 -8 36 -13 38 -10 8 7 -70 36 -113 42 -24 3 -58 12 -78 20 -41 18 -61
19 -25 2z"/>
<path d="M5658 2167 c17 -7 53 -10 80 -8 l47 5 -40 7 c-22 4 -58 8 -80 8 l-40
-1 33 -11z"/>
<path d="M6265 2170 c-13 -6 -15 -9 -5 -9 8 0 22 4 30 9 18 12 2 12 -25 0z"/>
<path d="M6320 2178 c3 -3 21 -13 40 -22 25 -12 31 -13 20 -3 -8 8 -26 18 -40
22 -14 4 -23 5 -20 3z"/>
<path d="M4240 2161 c-50 -4 -69 -9 -56 -14 11 -4 47 -4 80 0 34 4 65 6 69 5
5 -1 6 2 2 8 -3 5 -9 9 -13 8 -4 -1 -41 -4 -82 -7z"/>
<path d="M4090 2150 c0 -5 9 -10 20 -10 11 0 20 5 20 10 0 6 -9 10 -20 10 -11
0 -20 -4 -20 -10z"/>
<path d="M5751 2146 c2 -2 35 -22 73 -45 68 -41 101 -55 58 -25 -12 8 -22 23
-22 32 0 13 -14 21 -45 30 -45 12 -72 15 -64 8z"/>
<path d="M3601 2069 c0 -35 7 -82 15 -104 l14 -40 -5 35 c-3 19 -8 64 -11 100
-8 85 -14 90 -13 9z"/>
<path d="M3281 2049 c-61 -41 -101 -83 -101 -105 0 -2 27 22 61 54 34 31 74
65 90 75 25 16 36 27 27 27 -2 0 -36 -23 -77 -51z"/>
<path d="M3511 1998 c0 -43 3 -78 7 -78 5 0 7 28 5 63 -6 95 -11 100 -12 15z"/>
<path d="M5929 2026 c14 -14 29 -26 34 -26 13 0 -12 29 -37 42 -19 10 -18 8 3
-16z"/>
<path d="M6583 2003 c20 -2 54 -2 75 0 20 2 3 4 -38 4 -41 0 -58 -2 -37 -4z"/>
<path d="M3825 1919 c-82 -55 -148 -107 -104 -83 28 16 199 136 199 140 0 7
-5 4 -95 -57z"/>
<path d="M2350 1909 c43 -34 66 -42 32 -10 -18 17 -38 31 -45 31 -6 0 -1 -9
13 -21z"/>
<path d="M3149 1913 c-13 -16 -12 -17 4 -4 16 13 21 21 13 21 -2 0 -10 -8 -17
-17z"/>
<path d="M3522 1890 c0 -14 2 -19 5 -12 2 6 2 18 0 25 -3 6 -5 1 -5 -13z"/>
<path d="M6070 1886 c0 -2 7 -9 15 -16 13 -11 14 -10 9 4 -5 14 -24 23 -24 12z"/>
<path d="M3328 1863 c6 -2 18 -2 25 0 6 3 1 5 -13 5 -14 0 -19 -2 -12 -5z"/>
<path d="M3685 1859 c-4 -6 -5 -12 -2 -15 2 -3 7 2 10 11 7 17 1 20 -8 4z"/>
<path d="M3094 1825 c-9 -13 -14 -30 -11 -37 2 -7 8 -1 12 14 4 15 12 25 18
24 7 -2 9 -1 4 1 -4 3 -5 9 -1 14 13 21 -7 7 -22 -16z"/>
<path d="M3628 1843 c6 -2 18 -2 25 0 6 3 1 5 -13 5 -14 0 -19 -2 -12 -5z"/>
<path d="M3230 1825 c-14 -8 -20 -14 -15 -14 6 0 21 6 35 14 14 8 21 14 15 14
-5 0 -21 -6 -35 -14z"/>
<path d="M3298 1813 c12 -2 30 -2 40 0 9 3 -1 5 -23 4 -22 0 -30 -2 -17 -4z"/>
<path d="M3388 1813 c12 -2 32 -2 45 0 12 2 2 4 -23 4 -25 0 -35 -2 -22 -4z"/>
<path d="M3473 1803 c24 -6 21 -22 -8 -35 -14 -6 -32 -23 -40 -37 -16 -26 -16
-26 2 -5 10 12 29 26 41 33 12 6 26 20 32 31 10 18 8 20 -17 19 -17 -1 -21 -3
-10 -6z"/>
<path d="M3167 1783 c-3 -5 34 -7 81 -5 153 4 170 8 45 10 -67 1 -124 -1 -126
-5z"/>
<path d="M3227 1753 c18 -2 50 -2 70 0 21 2 7 4 -32 4 -38 0 -55 -2 -38 -4z"/>
<path d="M3148 1743 c6 -2 18 -2 25 0 6 3 1 5 -13 5 -14 0 -19 -2 -12 -5z"/>
<path d="M2558 1713 c7 -3 16 -2 19 1 4 3 -2 6 -13 5 -11 0 -14 -3 -6 -6z"/>
<path d="M6589 1694 c18 -8 36 -13 39 -10 6 6 -43 26 -61 25 -7 0 3 -7 22 -15z"/>
<path d="M3178 1643 c7 -3 16 -2 19 1 4 3 -2 6 -13 5 -11 0 -14 -3 -6 -6z"/>
<path d="M3236 1629 c34 -10 59 -34 67 -64 4 -19 5 -19 6 2 1 26 -52 73 -82
72 -17 -1 -15 -3 9 -10z"/>
<path d="M2874 1549 c-3 -5 -1 -9 5 -9 6 0 8 -7 5 -15 -4 -8 -10 -15 -16 -15
-5 0 -6 5 -3 10 11 18 -4 11 -48 -22 -23 -18 -54 -41 -67 -51 -24 -17 -24 -17
-2 -7 13 7 30 9 37 6 8 -3 17 0 21 6 4 7 3 8 -4 4 -7 -4 -12 -3 -12 3 0 5 23
17 50 26 28 9 50 21 50 26 0 5 12 9 28 10 15 0 21 3 14 6 -6 2 -10 8 -7 13 3
4 -7 10 -20 13 -14 2 -28 0 -31 -4z"/>
<path d="M3140 1523 l-25 -15 25 7 c14 4 50 11 80 15 l55 7 -55 1 c-32 0 -66
-6 -80 -15z"/>
<path d="M3008 1523 c18 -2 45 -2 60 0 15 2 0 4 -33 4 -33 0 -45 -2 -27 -4z"/>
<path d="M2693 1444 c-24 -14 -43 -28 -43 -31 0 -4 85 42 99 53 16 14 -22 -1
-56 -22z"/>
<path d="M2985 1450 c-3 -5 -1 -10 4 -10 6 0 11 5 11 10 0 6 -2 10 -4 10 -3 0
-8 -4 -11 -10z"/>
<path d="M3248 1402 c-48 -34 -52 -47 -34 -113 10 -36 15 -45 15 -27 1 15 -4
39 -9 53 -12 33 -4 51 16 34 12 -10 13 -9 8 5 -4 10 2 23 17 35 22 18 25 18
42 3 18 -16 18 -15 6 11 -7 15 -15 27 -18 27 -3 -1 -23 -13 -43 -28z"/>
<path d="M3268 1363 c-3 -13 -2 -26 3 -29 6 -3 7 -14 4 -25 -4 -11 -2 -19 4
-19 12 0 13 31 2 70 -7 25 -7 25 -13 3z"/>
<path d="M3290 1371 c0 -5 5 -13 10 -16 6 -3 10 -2 10 4 0 5 -4 13 -10 16 -5
3 -10 2 -10 -4z"/>
<path d="M2949 1293 c-13 -16 -12 -17 4 -4 16 13 21 21 13 21 -2 0 -10 -8 -17
-17z"/>
<path d="M1328 1293 c7 -3 16 -2 19 1 4 3 -2 6 -13 5 -11 0 -14 -3 -6 -6z"/>
<path d="M3060 1278 c-12 -22 -12 -22 6 -6 10 10 15 20 12 24 -4 3 -12 -5 -18
-18z"/>
<path d="M2608 1283 c18 -2 45 -2 60 0 15 2 0 4 -33 4 -33 0 -45 -2 -27 -4z"/>
<path d="M1193 1273 c9 -2 25 -2 35 0 9 3 1 5 -18 5 -19 0 -27 -2 -17 -5z"/>
<path d="M2823 1273 c9 -2 25 -2 35 0 9 3 1 5 -18 5 -19 0 -27 -2 -17 -5z"/>
<path d="M2893 1273 c9 -2 23 -2 30 0 6 3 -1 5 -18 5 -16 0 -22 -2 -12 -5z"/>
<path d="M1133 1263 c9 -2 23 -2 30 0 6 3 -1 5 -18 5 -16 0 -22 -2 -12 -5z"/>
<path d="M2609 1243 c-13 -17 -13 -17 6 -3 11 8 22 16 24 17 2 2 0 3 -6 3 -6
0 -17 -8 -24 -17z"/>
<path d="M2730 1250 c-9 -6 -10 -10 -3 -10 6 0 15 5 18 10 8 12 4 12 -15 0z"/>
<path d="M2810 1240 c-8 -5 -12 -12 -9 -15 4 -3 12 1 19 10 14 17 11 19 -10 5z"/>
<path d="M2520 1225 c-7 -9 -8 -15 -2 -15 5 0 12 7 16 15 3 8 4 15 2 15 -2 0
-9 -7 -16 -15z"/>
<path d="M2556 1224 c-5 -14 -4 -15 9 -4 17 14 19 20 6 20 -5 0 -12 -7 -15
-16z"/>
<path d="M2675 1229 c-19 -30 56 -36 82 -5 17 20 17 20 -1 6 -25 -20 -79 -23
-72 -4 6 16 0 19 -9 3z"/>
<path d="M2581 1210 c-9 -5 -4 -7 13 -7 29 0 32 2 13 10 -8 3 -20 2 -26 -3z"/>
<path d="M2768 1203 c7 -3 16 -2 19 1 4 3 -2 6 -13 5 -11 0 -14 -3 -6 -6z"/>
<path d="M2818 1203 c7 -3 16 -2 19 1 4 3 -2 6 -13 5 -11 0 -14 -3 -6 -6z"/>
<path d="M2635 1140 c-3 -5 -2 -10 4 -10 5 0 13 5 16 10 3 6 2 10 -4 10 -5 0
-13 -4 -16 -10z"/>
<path d="M2870 1125 c-7 -9 -8 -15 -2 -15 5 0 12 7 16 15 3 8 4 15 2 15 -2 0
-9 -7 -16 -15z"/>
</g>
</svg>
