<svg xmlns="http://www.w3.org/2000/svg" width="640" height="470" viewBox="0 0 640 470"><defs><style>.a{fill:#fff;}.b{fill:#003c78;}.c{fill:#ffca00;}.d{fill:#22a538;}</style></defs><g transform="translate(0 -1401)"><g transform="translate(0 1401)"><rect class="a" width="640" height="470" transform="translate(0 0)"/></g><path class="a" d="M1479.027,447.86c-.988,0-24.363-.274-37.667-24.132l-.065-.119a104.9,104.9,0,0,1-11.927-35.563,88.24,88.24,0,0,1,18.014-66.547l.306-.363c.187-.221.374-.441.565-.658,15.492-17.524,39.068-27.575,64.686-27.575a97.723,97.723,0,0,1,34.306,6.228s.868.318,1.319.5l.121.047c.465.182.93.363,1.395.553a108.667,108.667,0,0,1,29.178,17.178h.114l2.614,2.391a69.871,69.871,0,0,1,8.77,9.562,24.281,24.281,0,0,1,2.859,4.395l.181.368,27.484,71.771.147.679a74.565,74.565,0,0,1,1.506,10.262c.046.626.089,1.251.129,1.873.172,2.663.257,7.028.26,7.212l0,.174a21.793,21.793,0,0,1-21.768,21.768Z" transform="translate(-1100.345 1236.098)"/><path class="b" d="M1261.417,339.525h2.763V312.67l-2.763.228Zm-17.19-6.35c0,4.577,2.216,6.759,6.4,6.759a9.2,9.2,0,0,0,3.218-.547l-.228-2.177a6.737,6.737,0,0,1-2.265.362c-2.678,0-4.359-1.267-4.359-4.489v-18.1h7.036v-2.227h-7.036v-7.3l-2.717.323v6.975h-4.219v2.227h4.173Zm-17.236,4.489a12.473,12.473,0,0,1-7.664-2.54l-.451,2.5a13.326,13.326,0,0,0,8.153,2.447c6.219,0,8.986-3.222,8.986-8.073,0-9.436-14.38-6.126-14.38-12.793,0-2.72,2.4-4.447,6.222-4.447a16.838,16.838,0,0,1,6.8,1.5l.266-2.4a15.779,15.779,0,0,0-7.036-1.541c-5.757,0-8.885,2.674-8.885,7.025,0,8.851,14.427,5.768,14.427,12.931,0,3.083-1.911,5.4-6.443,5.4m117.2,2.45c7.853,0,11.17-3.9,11.17-13.926,0-9.934-3.318-13.879-11.17-13.879-7.753,0-11.283,3.946-11.283,13.879,0,10.023,3.483,13.926,11.283,13.926m0-25.359c5.988,0,8.307,3.133,8.307,11.432,0,8.347-2.319,11.522-8.307,11.522-6.031,0-8.435-3.129-8.435-11.522,0-8.3,2.4-11.432,8.435-11.432m-43.131,25.313c6.724,0,9.938-3.356,9.938-8.986V312.756h-2.724v18.237c0,4.224-2.493,6.443-7.214,6.443s-7.16-2.269-7.16-6.443V312.756h-2.716v18.326c0,5.58,3.214,8.986,9.876,8.986m-38.229-32.657a1.931,1.931,0,1,0-1.931-1.927,1.923,1.923,0,0,0,1.931,1.927m56.929,25.763c0,4.577,2.208,6.759,6.382,6.759a9.368,9.368,0,0,0,3.241-.547l-.242-2.177a6.762,6.762,0,0,1-2.266.362c-2.674,0-4.362-1.267-4.362-4.489v-18.1h7.036v-2.227h-7.036v-7.3l-2.709.323v6.975h-4.22v2.227h4.177Zm-35.419,33.512h3.086v14.285c0,5.217,2.675,8.392,8.158,8.392a13.476,13.476,0,0,0,4.72-.763l-.412-5.136a7.392,7.392,0,0,1-2.173.324c-2.182,0-3.268-.909-3.268-3.04V366.687h6.131v-5.259h-6.131v-6.717l-6.716.6v6.12h-3.395Zm-8.581-33.512c0,4.577,2.216,6.759,6.388,6.759a9.094,9.094,0,0,0,3.218-.547l-.216-2.177a6.863,6.863,0,0,1-2.273.362c-2.67,0-4.35-1.267-4.35-4.489v-18.1h7.028v-2.227h-7.028v-7.3l-2.728.323v6.975h-4.212v2.227h4.174Zm-94.666,6.35h2.724V305.5h-2.724Zm138.986,70.74a11.513,11.513,0,0,0-7.564,2.724v-2.436l-6.135.4V438.3h7.082V418.611a5.889,5.889,0,0,1,4.628-2.085c2.906,0,4.439,1.226,4.439,4.262V438.3h7.036V420.789c0-6.84-3.668-10.524-9.487-10.524m7.8-35c0-10.069-3.815-14.331-12.566-14.331-8.7,0-12.612,4.262-12.612,14.331,0,10.115,3.907,14.281,12.612,14.281,8.751,0,12.566-4.166,12.566-14.281m-17.88,0c0-6.716,1.414-8.531,5.314-8.531,3.861,0,5.263,1.815,5.263,8.531s-1.4,8.527-5.263,8.527-5.314-1.776-5.314-8.527m29.3-6.034a5.885,5.885,0,0,1,4.636-2.089c2.9,0,4.435,1.232,4.435,4.261v17.517h7.036V371.4c0-6.848-3.672-10.516-9.483-10.516a11.461,11.461,0,0,0-7.572,2.717v-2.435l-6.135.4v27.354h7.082Zm-47.238,41.038a11.509,11.509,0,0,0-7.568,2.724v-2.436l-6.127.4V438.3h7.074V418.611a5.881,5.881,0,0,1,4.624-2.085c2.906,0,4.454,1.226,4.454,4.262V438.3h7.018V420.789c0-6.84-3.665-10.524-9.475-10.524m52.414,0a23.837,23.837,0,0,0-9.437,1.819l.59,5.618a18.066,18.066,0,0,1,7.579-1.491c3.765,0,5.21,1.267,5.21,4.039v1.583a17.557,17.557,0,0,0-5.251-.763c-6.27,0-9.811,3.484-9.811,8.57,0,6.169,3.322,9.117,8.531,9.117a9.458,9.458,0,0,0,7.441-3.132l.127.042V438.3h5.953V421.29c0-7.526-2.821-11.025-10.931-11.025m3.941,19.691c0,1.768-2.17,3.221-4.574,3.221-2.312,0-3.91-.948-3.91-3.63,0-2.4,1.468-3.627,4.589-3.627a11.247,11.247,0,0,1,3.9.59ZM1232,413.717c0-1.815,1.141-3.271,5.357-3.271a27.356,27.356,0,0,1,8.2,1.457l.959-6.447a26.4,26.4,0,0,0-9.521-1.761c-8.628,0-12.346,4.666-12.346,10.427,0,11.383,15.656,9.125,15.656,14.477,0,2.351-1.641,3.711-5.36,3.711a19.874,19.874,0,0,1-9.433-2.49l-.991,6.578a22.271,22.271,0,0,0,10.516,2.543c7.949,0,12.612-4.131,12.612-10.844,0-11.529-15.652-9.074-15.652-14.38m-22.477-92.246v18.053h2.713v-18.1c0-6.169-3.441-9.117-9.11-9.117a10.624,10.624,0,0,0-7.988,3.391v-3.137l-2.72.242v26.719h2.72V318.57a8.986,8.986,0,0,1,7.306-3.634c4.543,0,7.079,1.95,7.079,6.535m25.371,67.445-11.888-34.025H1213.9l-11.748,34.025h8.069l1.9-6.624h12.346l1.9,6.624Zm-20.909-13.024,4.359-15.24h.138l4.174,15.24Zm48.68,34.422c-8.258,0-12.119,5.129-12.119,13.88,0,9.618,4.227,14.6,13.706,14.6a22.551,22.551,0,0,0,8.982-1.761l-.771-5.672a20.068,20.068,0,0,1-7.347,1.353c-4.713,0-6.944-1.716-7.3-6.3h16.01a26.218,26.218,0,0,0,.181-3.313c0-8.706-4.315-12.786-11.34-12.786m-4.994,11.433c.323-4,1.641-5.588,5.04-5.588,2.948,0,4.767,1.541,4.855,5.588Zm23.879-60.375a10.645,10.645,0,0,0-3-.4c-3.126,0-5.8,1.634-7.534,4.943h-.138v-4.608l-.628.031-5.619.265v27.312h7.071V375.122c0-4.581,2.717-7.255,6.389-7.255a10.175,10.175,0,0,1,3,.451Zm-20.453.055h-7.491l-4.49,16.688-.867,3.538h-.135l-1.178-3.449-5.988-16.777h-8.027l11.845,26.85-.146.362a4.01,4.01,0,0,1-4.216,2.632,7.275,7.275,0,0,1-2.856-.593l-.539,5a11.927,11.927,0,0,0,4.67.859c4.713,0,7.934-2.269,9.977-7.849Z" transform="translate(-1064.09 1234.538)"/><path class="c" d="M1612.029,370.324h-55.578a26.536,26.536,0,0,0-.277,27.841h66.866Z" transform="translate(-1118.487 1224.755)"/><path class="b" d="M1623.694,402.944h-66.866A26.765,26.765,0,0,0,1579.8,416.03h49.007c-.18-.491-.328-.992-.521-1.479Z" transform="translate(-1119.14 1219.975)"/><path class="c" d="M1605.12,460.45a12.662,12.662,0,0,0,12.662-12.662s-.083-4.311-.243-6.8H1452.878c10.853,19.461,29.714,19.461,29.714,19.461Z" transform="translate(-1103.91 1214.401)"/><path class="b" d="M1615.541,433.624a65.175,65.175,0,0,0-1.323-9h-51.523a35.422,35.422,0,0,1-32.609-21.677h-90A95.321,95.321,0,0,0,1451,435.415h164.661C1615.626,434.82,1615.584,434.221,1615.541,433.624Z" transform="translate(-1102.036 1219.975)"/><path class="c" d="M1530.171,370.325h-89.11a79.11,79.11,0,0,0-1.106,27.84h90a35.236,35.236,0,0,1,.212-27.84Z" transform="translate(-1101.908 1224.755)"/><path class="c" d="M1556.5,328.073h23.883c-6.073-5.559-15.431-12.256-29.2-17.856-.466-.191-.934-.372-1.4-.554-.4-.155-1.17-.44-1.17-.44-32.743-12.232-68.78-4.011-88.986,18.849Z" transform="translate(-1104.9 1234.535)"/><path class="d" d="M1607.734,355.526h-27.888a26.76,26.76,0,0,0-22.693,12.63h55.578C1610.844,363.387,1609.123,359.036,1607.734,355.526Z" transform="translate(-1119.188 1226.923)"/><path class="d" d="M1577.716,332.279H1456.955c-.228.258-.446.523-.669.784a77.96,77.96,0,0,0-14.908,31.688h89.11a35.408,35.408,0,0,1,32.4-21.222h24.434a16.014,16.014,0,0,0-1.9-2.841A60.221,60.221,0,0,0,1577.716,332.279Z" transform="translate(-1102.225 1230.329)"/><g transform="translate(117.181 1701.427)"><path class="b" d="M1190.511,496.632h-7.186a.071.071,0,0,0-.08.08v4.352a.071.071,0,0,0,.08.081h4.939a.179.179,0,0,1,.2.2v1.275a.179.179,0,0,1-.2.2h-4.939a.071.071,0,0,0-.08.081v4.452a.072.072,0,0,0,.08.082h7.186a.179.179,0,0,1,.2.2v1.275a.179.179,0,0,1-.2.2h-9.006a.179.179,0,0,1-.2-.2V495.154a.179.179,0,0,1,.2-.2h9.006a.179.179,0,0,1,.2.2v1.275A.179.179,0,0,1,1190.511,496.632Z" transform="translate(-1181.302 -494.931)"/><path class="b" d="M1201.748,494.951h1.538a.179.179,0,0,1,.2.2v13.762a.179.179,0,0,1-.2.2h-1.538a.178.178,0,0,1-.2-.2v-.668a.066.066,0,0,0-.031-.06c-.021-.014-.044-.007-.071.021a3.172,3.172,0,0,1-1.053.789,3.073,3.073,0,0,1-1.314.283,3.93,3.93,0,0,1-2.42-.719,4.084,4.084,0,0,1-1.406-2.034,7.715,7.715,0,0,1-.385-2.59,8.255,8.255,0,0,1,.323-2.45,4.126,4.126,0,0,1,1.4-2.084,3.966,3.966,0,0,1,2.49-.749,3.184,3.184,0,0,1,1.3.273,3.035,3.035,0,0,1,1.063.779c.027.027.05.034.071.02a.066.066,0,0,0,.031-.06v-4.513A.179.179,0,0,1,1201.748,494.951Zm-.243,9.007a5.341,5.341,0,0,0-.506-2.591,1.871,1.871,0,0,0-1.72-1.032,1.961,1.961,0,0,0-1.8.971,4.891,4.891,0,0,0-.647,2.671,5.351,5.351,0,0,0,.505,2.509,2.011,2.011,0,0,0,1.923,1.114,1.93,1.93,0,0,0,1.781-1.093A5.467,5.467,0,0,0,1201.5,503.958Z" transform="translate(-1183.29 -494.931)"/><path class="b" d="M1214.621,499.48h1.518a.179.179,0,0,1,.2.2v9.9a.179.179,0,0,1-.2.2h-1.518a.178.178,0,0,1-.2-.2v-.749a.047.047,0,0,0-.03-.05c-.021-.008-.044,0-.072.03a2.872,2.872,0,0,1-2.489,1.113,4.347,4.347,0,0,1-1.832-.384,3.092,3.092,0,0,1-1.852-2.955v-6.9a.179.179,0,0,1,.2-.2h1.518a.179.179,0,0,1,.2.2v6.294a2.361,2.361,0,0,0,.556,1.66,2.023,2.023,0,0,0,1.569.607,2.166,2.166,0,0,0,1.619-.617,2.252,2.252,0,0,0,.607-1.65v-6.294A.179.179,0,0,1,1214.621,499.48Z" transform="translate(-1185.235 -495.595)"/><path class="b" d="M1222.514,509.137a3.918,3.918,0,0,1-1.5-2.115,8.115,8.115,0,0,1-.3-2.449,8.9,8.9,0,0,1,.3-2.45,3.852,3.852,0,0,1,1.508-2.064,4.463,4.463,0,0,1,2.621-.769,4.6,4.6,0,0,1,2.651.769,3.522,3.522,0,0,1,1.477,1.943,2.865,2.865,0,0,1,.162.668.2.2,0,0,1-.182.2l-1.518.223h-.04c-.095,0-.162-.06-.2-.183l-.061-.324a1.99,1.99,0,0,0-.79-1.154,2.483,2.483,0,0,0-1.518-.465,2.359,2.359,0,0,0-1.478.465,2.125,2.125,0,0,0-.789,1.235,8.166,8.166,0,0,0-.182,1.923,8.056,8.056,0,0,0,.182,1.9,2.254,2.254,0,0,0,.8,1.275,2.312,2.312,0,0,0,1.467.465,2.518,2.518,0,0,0,1.528-.465,1.984,1.984,0,0,0,.8-1.215.045.045,0,0,0,.01-.05.047.047,0,0,1,.01-.051v-.081a.171.171,0,0,1,.223-.121l1.517.243q.162.041.162.161v.081a1.287,1.287,0,0,1-.1.446,3.427,3.427,0,0,1-1.477,1.983,4.692,4.692,0,0,1-2.651.749A4.41,4.41,0,0,1,1222.514,509.137Z" transform="translate(-1187.076 -495.567)"/><path class="b" d="M1239.35,499.726a3.307,3.307,0,0,1,1.416,1.214,3.231,3.231,0,0,1,.5,1.771v6.841a.179.179,0,0,1-.2.2h-1.539a.178.178,0,0,1-.2-.2v-.728c0-.068-.034-.081-.1-.041a3.523,3.523,0,0,1-1.285.841,4.676,4.676,0,0,1-1.69.293,3.937,3.937,0,0,1-2.479-.759,2.721,2.721,0,0,1-.982-2.3,3.029,3.029,0,0,1,1.1-2.48,4.759,4.759,0,0,1,3.085-.9h2.267a.072.072,0,0,0,.082-.081v-.545a1.833,1.833,0,0,0-.516-1.387,2.193,2.193,0,0,0-1.569-.5,2.593,2.593,0,0,0-1.386.334,1.376,1.376,0,0,0-.658.9.215.215,0,0,1-.243.183l-1.639-.223c-.136-.026-.2-.08-.182-.162a2.757,2.757,0,0,1,1.274-1.953,4.846,4.846,0,0,1,2.793-.759A5,5,0,0,1,1239.35,499.726Zm-.819,7.983a1.706,1.706,0,0,0,.79-1.436v-1.194a.072.072,0,0,0-.082-.081h-1.9a3.431,3.431,0,0,0-1.9.465,1.47,1.47,0,0,0-.708,1.3,1.3,1.3,0,0,0,.537,1.133,2.357,2.357,0,0,0,1.407.385A3.108,3.108,0,0,0,1238.53,507.71Z" transform="translate(-1188.844 -495.567)"/><path class="b" d="M1252.2,506.506a.047.047,0,0,1,.01-.051v-.081a.171.171,0,0,1,.223-.121l1.518.243c.108.027.162.081.162.161v.081a1.282,1.282,0,0,1-.1.446,3.383,3.383,0,0,1-1.235,1.811,4.474,4.474,0,0,1-2.226.881c-.08.026-.087.061-.021.1a2.528,2.528,0,0,1,.972,1.842,1.943,1.943,0,0,1-.06.466,1.414,1.414,0,0,1-.658.951,2.267,2.267,0,0,1-1.144.283,2.949,2.949,0,0,1-1.011-.161.189.189,0,0,1-.143-.243l.1-.668a.165.165,0,0,1,.092-.131.235.235,0,0,1,.152-.01,1.657,1.657,0,0,0,.445.062.918.918,0,0,0,.628-.213.8.8,0,0,0,.243-.637,2.315,2.315,0,0,0-1.093-1.64c-.013-.027-.048-.04-.1-.04a3.969,3.969,0,0,1-2.013-.953,4.031,4.031,0,0,1-1.184-1.861,8.1,8.1,0,0,1-.3-2.449,8.884,8.884,0,0,1,.3-2.45,3.844,3.844,0,0,1,1.508-2.064,4.462,4.462,0,0,1,2.621-.769,4.607,4.607,0,0,1,2.651.769,3.521,3.521,0,0,1,1.477,1.943,2.853,2.853,0,0,1,.162.668.2.2,0,0,1-.182.2l-1.518.223h-.04c-.095,0-.162-.06-.2-.183l-.061-.324a1.986,1.986,0,0,0-.789-1.154,2.483,2.483,0,0,0-1.518-.465,2.359,2.359,0,0,0-1.477.465,2.124,2.124,0,0,0-.789,1.235,8.159,8.159,0,0,0-.182,1.923,8.049,8.049,0,0,0,.182,1.9,2.253,2.253,0,0,0,.8,1.275,2.311,2.311,0,0,0,1.467.465,2.516,2.516,0,0,0,1.528-.465,1.984,1.984,0,0,0,.8-1.215A.045.045,0,0,0,1252.2,506.506Z" transform="translate(-1190.7 -495.567)"/><path class="b" d="M1264.083,499.087a3.312,3.312,0,0,1,1.417,1.214,3.236,3.236,0,0,1,.5,1.771v6.841a.179.179,0,0,1-.2.2h-1.539a.179.179,0,0,1-.2-.2v-.728c0-.068-.033-.081-.1-.041a3.532,3.532,0,0,1-1.285.841,4.676,4.676,0,0,1-1.69.293,3.938,3.938,0,0,1-2.479-.759,2.721,2.721,0,0,1-.981-2.3,3.029,3.029,0,0,1,1.1-2.48,4.758,4.758,0,0,1,3.085-.9h2.267a.071.071,0,0,0,.081-.081v-.545a1.832,1.832,0,0,0-.515-1.387,2.192,2.192,0,0,0-1.569-.5,2.591,2.591,0,0,0-1.386.334,1.377,1.377,0,0,0-.658.9.214.214,0,0,1-.243.183l-1.639-.223c-.135-.026-.2-.08-.182-.162a2.755,2.755,0,0,1,1.274-1.953,4.848,4.848,0,0,1,2.793-.759A5,5,0,0,1,1264.083,499.087Zm-1.507-2.075a3.745,3.745,0,0,1-.628-.3c-.256-.134-.448-.229-.576-.282a1.066,1.066,0,0,0-.415-.081,1.418,1.418,0,0,0-1.073.445l-.081.081a.127.127,0,0,1-.112.061.184.184,0,0,1-.131-.061l-.567-.567a.2.2,0,0,1-.041-.283,2.5,2.5,0,0,1,.83-.81,2.1,2.1,0,0,1,1.073-.283,1.769,1.769,0,0,1,.6.091,3.446,3.446,0,0,1,.475.213c.148.081.25.135.3.162s.152.08.294.162a1.811,1.811,0,0,0,.384.172,1.169,1.169,0,0,0,.334.05,1.287,1.287,0,0,0,1.052-.546c.081-.134.175-.148.283-.041l.506.568a.322.322,0,0,1,.07.142.23.23,0,0,1-.029.142,1.763,1.763,0,0,1-.76.789,2.3,2.3,0,0,1-1.123.283A1.984,1.984,0,0,1,1262.575,497.012Zm.688,10.058a1.7,1.7,0,0,0,.788-1.436V504.44a.072.072,0,0,0-.081-.081h-1.9a3.429,3.429,0,0,0-1.9.465,1.469,1.469,0,0,0-.708,1.3,1.3,1.3,0,0,0,.537,1.133,2.357,2.357,0,0,0,1.407.385A3.108,3.108,0,0,0,1263.263,507.071Z" transform="translate(-1192.468 -494.928)"/><path class="b" d="M1271.935,509.157a3.975,3.975,0,0,1-1.559-2.115,7.784,7.784,0,0,1-.364-2.469,7.462,7.462,0,0,1,.344-2.429,3.987,3.987,0,0,1,1.558-2.094,4.589,4.589,0,0,1,2.651-.759,4.308,4.308,0,0,1,2.54.759,4.15,4.15,0,0,1,1.548,2.074,7.3,7.3,0,0,1,.365,2.429,7.735,7.735,0,0,1-.365,2.49,4.012,4.012,0,0,1-1.538,2.115,4.4,4.4,0,0,1-2.57.759A4.525,4.525,0,0,1,1271.935,509.157Zm4.027-1.376a2.492,2.492,0,0,0,.87-1.285,6.935,6.935,0,0,0,.224-1.9,7.363,7.363,0,0,0-.2-1.883,2.5,2.5,0,0,0-.87-1.285,2.4,2.4,0,0,0-1.478-.455,2.328,2.328,0,0,0-1.438.455,2.493,2.493,0,0,0-.87,1.285,6.469,6.469,0,0,0-.223,1.883,6.677,6.677,0,0,0,.223,1.9,2.366,2.366,0,0,0,.86,1.285,2.439,2.439,0,0,0,1.487.455A2.3,2.3,0,0,0,1275.963,507.782Z" transform="translate(-1194.299 -495.567)"/><path class="b" d="M1294.844,494.951h1.539a.179.179,0,0,1,.2.2v13.762a.179.179,0,0,1-.2.2h-1.539a.179.179,0,0,1-.2-.2v-.668a.067.067,0,0,0-.03-.06q-.031-.02-.072.021a3.161,3.161,0,0,1-1.052.789,3.074,3.074,0,0,1-1.315.283,3.924,3.924,0,0,1-2.419-.719,4.087,4.087,0,0,1-1.407-2.034,7.709,7.709,0,0,1-.385-2.59,8.253,8.253,0,0,1,.324-2.45,4.12,4.12,0,0,1,1.4-2.084,3.963,3.963,0,0,1,2.489-.749,3.189,3.189,0,0,1,1.306.273,3.036,3.036,0,0,1,1.062.779c.027.027.051.034.072.02a.067.067,0,0,0,.03-.06v-4.513A.179.179,0,0,1,1294.844,494.951Zm-.242,9.007a5.343,5.343,0,0,0-.506-2.591,1.872,1.872,0,0,0-1.721-1.032,1.96,1.96,0,0,0-1.8.971,4.894,4.894,0,0,0-.648,2.671,5.345,5.345,0,0,0,.506,2.509,2.011,2.011,0,0,0,1.923,1.114,1.929,1.929,0,0,0,1.78-1.093A5.458,5.458,0,0,0,1294.6,503.958Z" transform="translate(-1196.929 -494.931)"/><path class="b" d="M1302.951,509.157a3.981,3.981,0,0,1-1.559-2.115,7.812,7.812,0,0,1-.363-2.469,7.467,7.467,0,0,1,.343-2.429,3.985,3.985,0,0,1,1.558-2.094,4.59,4.59,0,0,1,2.651-.759,4.312,4.312,0,0,1,2.541.759,4.149,4.149,0,0,1,1.548,2.074,7.318,7.318,0,0,1,.364,2.429,7.756,7.756,0,0,1-.364,2.49,4.019,4.019,0,0,1-1.539,2.115,4.393,4.393,0,0,1-2.569.759A4.526,4.526,0,0,1,1302.951,509.157Zm4.028-1.376a2.494,2.494,0,0,0,.87-1.285,6.945,6.945,0,0,0,.224-1.9,7.363,7.363,0,0,0-.2-1.883,2.492,2.492,0,0,0-.87-1.285,2.393,2.393,0,0,0-1.478-.455,2.327,2.327,0,0,0-1.437.455,2.494,2.494,0,0,0-.87,1.285,6.5,6.5,0,0,0-.222,1.883,6.711,6.711,0,0,0,.222,1.9,2.366,2.366,0,0,0,.861,1.285,2.435,2.435,0,0,0,1.488.455A2.3,2.3,0,0,0,1306.979,507.782Z" transform="translate(-1198.844 -495.567)"/><path class="b" d="M1322.333,497.036a2.156,2.156,0,0,0-.365,1.457v.242a.072.072,0,0,0,.082.081h2.124a.18.18,0,0,1,.2.2V500.4a.179.179,0,0,1-.2.2h-2.124a.072.072,0,0,0-.082.081v8.237a.178.178,0,0,1-.2.2h-1.538a.178.178,0,0,1-.2-.2v-8.237a.072.072,0,0,0-.081-.081h-1.355a.179.179,0,0,1-.2-.2v-1.377a.179.179,0,0,1,.2-.2h1.355a.071.071,0,0,0,.081-.081v-.364a5.387,5.387,0,0,1,.314-2.065,1.917,1.917,0,0,1,1.062-1.042,5.625,5.625,0,0,1,2.106-.314h.688a.18.18,0,0,1,.2.2v1.295a.179.179,0,0,1-.2.2h-.485A1.88,1.88,0,0,0,1322.333,497.036Z" transform="translate(-1201.387 -494.931)"/><path class="b" d="M1334.324,499.48h1.517a.179.179,0,0,1,.2.2v9.9a.179.179,0,0,1-.2.2h-1.517a.178.178,0,0,1-.2-.2v-.749a.046.046,0,0,0-.031-.05c-.02-.008-.043,0-.071.03a2.874,2.874,0,0,1-2.49,1.113,4.343,4.343,0,0,1-1.831-.384,3.087,3.087,0,0,1-1.852-2.955v-6.9a.179.179,0,0,1,.2-.2h1.518a.179.179,0,0,1,.2.2v6.294a2.367,2.367,0,0,0,.556,1.66,2.023,2.023,0,0,0,1.569.607,2.164,2.164,0,0,0,1.619-.617,2.249,2.249,0,0,0,.608-1.65v-6.294A.179.179,0,0,1,1334.324,499.48Z" transform="translate(-1202.773 -495.595)"/><path class="b" d="M1345.517,500.621h-2.186a.072.072,0,0,0-.082.08v5.364a1.369,1.369,0,0,0,1.579,1.6h.586a.179.179,0,0,1,.2.2v1.255a.179.179,0,0,1-.2.2c-.432.027-.742.041-.931.041a3.977,3.977,0,0,1-2.317-.557,2.366,2.366,0,0,1-.78-2.054V500.7a.071.071,0,0,0-.081-.08h-1.234a.18.18,0,0,1-.2-.2v-1.194a.18.18,0,0,1,.2-.2h1.234a.071.071,0,0,0,.081-.081v-2.387a.179.179,0,0,1,.2-.2h1.457a.179.179,0,0,1,.2.2v2.387a.071.071,0,0,0,.082.081h2.186a.18.18,0,0,1,.2.2v1.194A.18.18,0,0,1,1345.517,500.621Z" transform="translate(-1204.534 -495.137)"/><path class="b" d="M1355.831,499.48h1.517a.179.179,0,0,1,.2.2v9.9a.178.178,0,0,1-.2.2h-1.517a.178.178,0,0,1-.2-.2v-.749a.046.046,0,0,0-.031-.05c-.021-.008-.044,0-.071.03a2.874,2.874,0,0,1-2.49,1.113,4.345,4.345,0,0,1-1.831-.384,3.092,3.092,0,0,1-1.852-2.955v-6.9a.179.179,0,0,1,.2-.2h1.518a.179.179,0,0,1,.2.2v6.294a2.365,2.365,0,0,0,.556,1.66,2.023,2.023,0,0,0,1.569.607,2.165,2.165,0,0,0,1.619-.617,2.249,2.249,0,0,0,.608-1.65v-6.294A.179.179,0,0,1,1355.831,499.48Z" transform="translate(-1205.924 -495.595)"/><path class="b" d="M1367.966,499.625a.186.186,0,0,1,.1.242l-.322,1.518c-.015.122-.1.162-.243.122a2.113,2.113,0,0,0-.81-.143l-.283.021a2.27,2.27,0,0,0-1.569.658,2.177,2.177,0,0,0-.617,1.609v5.91a.178.178,0,0,1-.2.2h-1.538a.179.179,0,0,1-.2-.2v-9.9a.18.18,0,0,1,.2-.2h1.538a.179.179,0,0,1,.2.2v1.073c0,.041.01.064.03.072s.038,0,.051-.031a2.823,2.823,0,0,1,2.489-1.418A2.6,2.6,0,0,1,1367.966,499.625Z" transform="translate(-1207.818 -495.578)"/><path class="b" d="M1372.429,509.157a3.977,3.977,0,0,1-1.558-2.115,7.8,7.8,0,0,1-.364-2.469,7.473,7.473,0,0,1,.343-2.429,3.987,3.987,0,0,1,1.558-2.094,4.592,4.592,0,0,1,2.651-.759,4.31,4.31,0,0,1,2.541.759,4.146,4.146,0,0,1,1.548,2.074,7.318,7.318,0,0,1,.365,2.429,7.756,7.756,0,0,1-.365,2.49,4.016,4.016,0,0,1-1.539,2.115,4.4,4.4,0,0,1-2.569.759A4.525,4.525,0,0,1,1372.429,509.157Zm4.028-1.376a2.494,2.494,0,0,0,.87-1.285,6.936,6.936,0,0,0,.224-1.9,7.356,7.356,0,0,0-.2-1.883,2.491,2.491,0,0,0-.87-1.285,2.392,2.392,0,0,0-1.477-.455,2.327,2.327,0,0,0-1.437.455,2.486,2.486,0,0,0-.87,1.285,6.464,6.464,0,0,0-.223,1.883,6.671,6.671,0,0,0,.223,1.9,2.36,2.36,0,0,0,.86,1.285,2.436,2.436,0,0,0,1.488.455A2.3,2.3,0,0,0,1376.457,507.782Z" transform="translate(-1209.023 -495.567)"/><path class="b" d="M1382.558,512.688a.186.186,0,0,1-.031-.161l.81-4.493a.208.208,0,0,1,.223-.182h1.336a.169.169,0,0,1,.182.222l-1.193,4.494a.21.21,0,0,1-.223.182h-.952A.185.185,0,0,1,1382.558,512.688Z" transform="translate(-1210.783 -496.822)"/><path class="b" d="M1329.578,527.972a3.307,3.307,0,0,1,1.416,1.214,3.234,3.234,0,0,1,.5,1.771V537.8a.179.179,0,0,1-.2.2h-1.538a.179.179,0,0,1-.2-.2v-.729c0-.068-.033-.081-.1-.041a3.522,3.522,0,0,1-1.285.841,4.652,4.652,0,0,1-1.69.293,3.932,3.932,0,0,1-2.478-.759,2.721,2.721,0,0,1-.982-2.3,3.031,3.031,0,0,1,1.1-2.48,4.76,4.76,0,0,1,3.086-.9h2.267a.072.072,0,0,0,.081-.081V531.1a1.83,1.83,0,0,0-.516-1.387,2.189,2.189,0,0,0-1.569-.5,2.586,2.586,0,0,0-1.386.335,1.374,1.374,0,0,0-.658.9.214.214,0,0,1-.243.183l-1.639-.223c-.135-.026-.2-.08-.182-.162a2.755,2.755,0,0,1,1.274-1.953,4.854,4.854,0,0,1,2.793-.759A5,5,0,0,1,1329.578,527.972Zm-.82,7.984a1.7,1.7,0,0,0,.79-1.436v-1.194a.072.072,0,0,0-.081-.081h-1.9a3.425,3.425,0,0,0-1.9.465,1.468,1.468,0,0,0-.708,1.3,1.305,1.305,0,0,0,.536,1.133,2.355,2.355,0,0,0,1.406.385A3.105,3.105,0,0,0,1328.757,535.956Z" transform="translate(-1202.064 -499.706)"/><path class="b" d="M1342.5,527.7h1.538a.179.179,0,0,1,.2.2v9.573a4.118,4.118,0,0,1-1.386,3.5,5.993,5.993,0,0,1-3.714,1.053q-.324,0-1.012-.041a.2.2,0,0,1-.2-.223l.06-1.4a.193.193,0,0,1,.06-.142.17.17,0,0,1,.162-.041c.189.014.466.021.83.021a3.9,3.9,0,0,0,2.49-.637,2.66,2.66,0,0,0,.769-2.156v-.364a.066.066,0,0,0-.031-.061c-.02-.014-.044-.006-.07.02a3.1,3.1,0,0,1-2.491.992,4.281,4.281,0,0,1-2.377-.688,3.535,3.535,0,0,1-1.467-2.025,9.066,9.066,0,0,1-.264-2.469,8.552,8.552,0,0,1,.3-2.59,3.822,3.822,0,0,1,1.365-1.953,3.742,3.742,0,0,1,2.318-.739,3.41,3.41,0,0,1,2.611,1.012c.026.026.05.037.07.03a.046.046,0,0,0,.031-.05V527.9A.179.179,0,0,1,1342.5,527.7Zm-.233,6.315c.02-.242.031-.648.031-1.214s-.01-.969-.031-1.2a4.18,4.18,0,0,0-.111-.679,2.247,2.247,0,0,0-3.562-1.225,2.607,2.607,0,0,0-.81,1.225,8.521,8.521,0,0,0-.021,3.784,2.288,2.288,0,0,0,.8,1.225,2.25,2.25,0,0,0,1.447.475,2.081,2.081,0,0,0,2.166-1.7A6.788,6.788,0,0,0,1342.27,534.013Z" transform="translate(-1203.909 -499.706)"/><path class="b" d="M1350.447,537.4a3.975,3.975,0,0,1-1.558-2.115,7.8,7.8,0,0,1-.364-2.469,7.463,7.463,0,0,1,.343-2.429,3.984,3.984,0,0,1,1.559-2.094,4.593,4.593,0,0,1,2.651-.759,4.317,4.317,0,0,1,2.54.759,4.147,4.147,0,0,1,1.548,2.074,7.319,7.319,0,0,1,.365,2.43,7.75,7.75,0,0,1-.365,2.489,4.017,4.017,0,0,1-1.538,2.115,4.4,4.4,0,0,1-2.57.759A4.527,4.527,0,0,1,1350.447,537.4Zm4.027-1.376a2.488,2.488,0,0,0,.87-1.285,6.942,6.942,0,0,0,.224-1.9,7.329,7.329,0,0,0-.2-1.883,2.5,2.5,0,0,0-.87-1.285,2.4,2.4,0,0,0-1.477-.455,2.331,2.331,0,0,0-1.437.455,2.5,2.5,0,0,0-.87,1.285,6.454,6.454,0,0,0-.223,1.883,6.663,6.663,0,0,0,.223,1.9,2.359,2.359,0,0,0,.86,1.285,2.43,2.43,0,0,0,1.488.455A2.293,2.293,0,0,0,1354.475,536.028Z" transform="translate(-1205.802 -499.706)"/><path class="b" d="M1367.752,527.871a.187.187,0,0,1,.1.242l-.323,1.518c-.014.122-.1.162-.243.122a2.114,2.114,0,0,0-.81-.143l-.283.021a2.27,2.27,0,0,0-1.569.658,2.178,2.178,0,0,0-.617,1.609v5.91a.179.179,0,0,1-.2.2h-1.538a.179.179,0,0,1-.2-.2v-9.9a.18.18,0,0,1,.2-.2h1.538a.179.179,0,0,1,.2.2v1.073c0,.041.01.065.03.072s.037,0,.051-.031a2.821,2.821,0,0,1,2.489-1.417A2.6,2.6,0,0,1,1367.752,527.871Z" transform="translate(-1207.786 -499.716)"/><path class="b" d="M1376.577,527.972a3.312,3.312,0,0,1,1.417,1.214,3.235,3.235,0,0,1,.5,1.771V537.8a.179.179,0,0,1-.2.2h-1.539a.179.179,0,0,1-.2-.2v-.729c0-.068-.033-.081-.1-.041a3.525,3.525,0,0,1-1.286.841,4.655,4.655,0,0,1-1.69.293,3.937,3.937,0,0,1-2.479-.759,2.721,2.721,0,0,1-.982-2.3,3.029,3.029,0,0,1,1.1-2.48,4.758,4.758,0,0,1,3.085-.9h2.267a.072.072,0,0,0,.081-.081V531.1a1.833,1.833,0,0,0-.516-1.387,2.193,2.193,0,0,0-1.569-.5,2.585,2.585,0,0,0-1.386.335,1.374,1.374,0,0,0-.658.9c-.041.136-.121.2-.243.183l-1.639-.223c-.136-.026-.2-.08-.182-.162a2.756,2.756,0,0,1,1.274-1.953,4.852,4.852,0,0,1,2.792-.759A5,5,0,0,1,1376.577,527.972Zm-.819,7.984a1.706,1.706,0,0,0,.789-1.436v-1.194a.072.072,0,0,0-.081-.081h-1.9a3.431,3.431,0,0,0-1.9.465,1.47,1.47,0,0,0-.708,1.3,1.306,1.306,0,0,0,.537,1.133,2.357,2.357,0,0,0,1.407.385A3.108,3.108,0,0,0,1375.757,535.956Z" transform="translate(-1208.95 -499.706)"/><path class="b" d="M1382.941,538.987a1.368,1.368,0,1,1,.931.365A1.26,1.26,0,0,1,1382.941,538.987Z" transform="translate(-1210.791 -501.057)"/></g></g></svg>